<svg xmlns="http://www.w3.org/2000/svg" id="Layer_1" viewBox="0 0 512 512" width="512" height="512"><path d="M191 466a440.27 440.27 0 0 1-67.9-5.4c-40.4-6.3-81.3-27.5-92.8-33.8L0 410.3l32.8-10.8c35.9-11.8 57.7-19.1 84.8-30.6-27.1-13.1-47.9-36.7-58-67.2L52 278.5l6.3 1A123 123 0 0 1 44 261.9c-12.9-19.6-19.8-43.6-18.3-64.2l1.4-20.2 12.1 4.7a115.56 115.56 0 0 1-11-30.8 118 118 0 0 1 12.5-78.9l10.6-19.4 14.1 17c44.7 53.6 101.2 85.5 168.4 94.8-2.7-18.9-.7-37.1 6.1-53.5 7.9-19 22-35.2 40.7-46.7a121.67 121.67 0 0 1 71-17.4A113.64 113.64 0 0 1 421.3 76c9.3-2.4 16.2-5 25.5-8.5 5.6-2.1 11.9-4.5 19.9-7.2l29.2-10.1-19.1 54.5 3.9-.3L512 103l-18.5 25.2c-1.1 1.4-1.3 1.9-1.7 2.4-1.5 2.2-3.3 5-28.7 38.9a48 48 0 0 0-8.9 31.1c2.2 44-3.1 83.8-16 118.2-12.2 32.6-31.1 60.6-56.2 83.2-31 27.9-70.6 47.1-117.6 56.8A361.18 361.18 0 0 1 191 466z"/></svg>