<svg viewBox="0 0 500 500" xmlns="http://www.w3.org/2000/svg"><circle cx="250" cy="250" fill="#fff" r="208.75"/><path d="m184.46 238.26 2.86 4.37-5.64.05z" fill="#fff"/><path d="m246.84 336a184.56 184.56 0 0 0 -.69-22.61c-.82 1-1.64 2-2.44 3-42.57 51.86-61.37 30.48-60.18 20.34.88-7.58-.22-21.31-.48-24.31-11.74-1.46-11.58-6.68-11-20.35l-3.55-1.05c-4.64 6.64-7.45 22.14-9.12 40.74.05.11.11.21.16.31.54 1.08 1.09 2.14 1.66 3.13 6.66 11.63 15.13 18.29 24.38 21.69-.08-1.88-.14-3.77-.19-5.67l1 1 .92-1.8s3.81 2.33 4.24 4.24a14.84 14.84 0 0 1 2.44-3.6 12.92 12.92 0 0 1 2.65 5.4s.85-4.13 1.38-4.45a14.28 14.28 0 0 1 1.59 2.86 32.07 32.07 0 0 1 2.65-3.28l1.09 1 .93.87a11.26 11.26 0 0 1 .73-1.27c.19-.29.39-.53.54-.53l.27.33a10.13 10.13 0 0 1 1.85 3s3.5-2.12 4.56-1.17c0 0-.12 2-.33 5.47.88-.12 1.84-.3 2.85-.52l.55-.12a68.82 68.82 0 0 0 7.24-2.18h.07a219.82 219.82 0 0 0 23.93-10.54c.16-3.52.25-6.81.3-9.93z" fill="#e0a882"/><path d="m158.2 157.62-4.84.47c-.37 1.2-.81 2.69-1.3 4.34a41.9 41.9 0 0 1 6.14-4.81z" fill="#f9d750"/><path d="m174.92 278a16 16 0 0 1 4.16.25c-18.47-9.29 3.51-24.65 6.65-24.65.16-.44.33-1 .5-1.54.54-1.73 1.12-3.92 1.68-6.47.12-.54.24-1.11.36-1.66-5.17 1.29-31.24 6.59-44-14.49-2 6.58-5 16.37-8 37.74-3.89 32.75 7.64 46 7.64 46l.21.18v.05a109.53 109.53 0 0 1 9.41 9.34c3.28-25.18 10.01-43.96 21.39-44.75z" fill="#e0a882"/><path d="m157.84 220.72c-3.5.11-7.53 2.87-7.53 2.87 19.09.31 28.53 8.16 28.53 8.16a25 25 0 0 0 -14.53-11.45c6.58-1.27 14.95 3.39 18.56 10.5a40.45 40.45 0 0 0 6.16 9.12c.39-2.35.74-4.84 1-7.47 1.92-19.65-1-45.63-24.49-54.69a52.34 52.34 0 0 0 -16.75-3.21c-.91 3.7-1.7 7.36-2.16 10.44-.06.4-.12.81-.16 1.19s-.12.9-.15 1.3v.57c-.05.6-.07 1.16-.07 1.67v.45a7.44 7.44 0 0 0 .18 1.56 58.14 58.14 0 0 1 .94 7.84v.7c.06 1.23.1 2.47.1 3.71q0 1.88-.09 3.72v.54c-.06 1.34-.15 2.66-.26 3.94v.09c-.31 3.81-.79 7.29-1.28 10.1 4.56-2.26 12-1.65 12-1.65z" fill="#e0a882"/><path d="m373.63 235.79a3 3 0 0 0 -.27-.72v-.06a3.72 3.72 0 0 0 -.51-.73c-.13-.15-.28-.3-.43-.45a6.46 6.46 0 0 0 -.73-.59 8.58 8.58 0 0 0 -1.17-.67c-.13 0-.27-.09-.4-.15a8.22 8.22 0 0 0 -.83-.3l-.5-.12c-.26-.05-.51-.11-.78-.15h-.56c-.25 0-.5 0-.76 0h-.59c-.26 0-.51 0-.77.05l-.61.09-.78.15-.63.15-.78.22-.64.22-.8.29c-.21.09-.43.17-.64.27s-.54.23-.8.36l-.64.31c-.28.13-.55.28-.82.42l-.63.35-.82.48-.62.37-.83.54-.6.4-.84.59-.58.4-.85.64-.53.41c-.32.24-.63.49-.94.74l-.42.34-1.3 1.09-.13.12c-.72.62-1.43 1.25-2.1 1.87l-.11.1c-.69.64-1.34 1.26-2 1.87l-.16.15c-.6.6-1.18 1.18-1.72 1.74l-.17.18c-.53.55-1 1.06-1.47 1.55l-.15.16-1.22 1.26-.1.12c-.35.39-.66.74-.91 1l-.07.08-.57.67-.19.24c-.11-1.7-1-1.59-1-1.59l-10.26-1.39-.49-.07v-9.61s1.51-4.46 3.61-10.86c.31-.95.63-1.94 1-3 0-.14.09-.27.13-.41.13-.41.26-.81.4-1.22l.24-.75c.27-.82.53-1.64.8-2.49.06-.17.11-.35.17-.52.2-.64.41-1.28.61-1.93l.24-.73.15-.49c.35-1.1.71-2.22 1.06-3.34l.12-.39.4-1.3c.36-1.15.72-2.3 1.07-3.45.17-.54.34-1.09.5-1.63l.15-.5.33-1.1c.16-.53.32-1.05.47-1.57.07-.21.13-.42.19-.62.13-.44.25-.87.38-1.3l.48-1.62a1.21 1.21 0 0 1 .05-.18c.26-.93.52-1.84.77-2.72l.15-.56c.25-.87.48-1.72.7-2.53l.08-.32c.19-.71.37-1.4.53-2.06.06-.22.11-.43.16-.64.18-.73.35-1.43.5-2.08v-.15c.14-.6.25-1.16.35-1.68l.09-.43c.1-.55.19-1.06.24-1.49 0-.22-.06-.45-.07-.67q-16.09-3-30.85-5c6.52-.35 10.42-.38 10.42-.38-10.9-12.17-36.49-21.06-36.49-21.06a127.26 127.26 0 0 0 -44.23 15.27 436.09 436.09 0 0 0 -57.22 1.91 126 126 0 0 1 4.3 82s-23.39 5.32-8.39 18.58c0 0-1.28-4 .69-7.26 0 0 4.56 11 9.17 13.34a63 63 0 0 1 -6.34-1.76c2.57 1.82 3.52 4.55 1.86 7.1-3 4.56-11.64.35-11.64.35a5.07 5.07 0 0 0 -2.66.87c4.29 1.14 25.2 5.95 57.84 1.51a50.25 50.25 0 0 0 -13 .24c-8.34.84-9.9-4.25-5.09-7.36s23.19-2.08 23.19-2.08a17.47 17.47 0 0 1 10.13 6.57 249.46 249.46 0 0 0 28.41-7.7c-5.65-1-9.26-4.77-2.4-6s15.91 1.91 17.39 8.49a17 17 0 0 0 -14.14-4.74s7 3.76-7.08 7.67c-4.92 7.61-9.59 14.34-14 20.34l-.42.56a141 141 0 0 1 2.73 25.54c.1 3.37.13 6.83.09 10.34l.68-.36q3.66-1.94 7.31-3.95l.4-.22 3.16-1.75.85-.48 2.64-1.49 1.11-.64 2.37-1.36 1.15-.66 2.28-1.33 1.13-.67 2.21-1.31 1.15-.69 2.06-1.24 1.18-.71 2-1.21c.37-.23.73-.46 1.1-.67l1.91-1.2 1.07-.66 1.83-1.16 1-.62 1.73-1.12 1-.61 1.6-1.06.89-.58 1.61-1.08.69-.46 1.56-1.07.55-.39c.67-.46 1.3-.91 1.89-1.34 18.25-13.15 36-53.07 36-53.07l.25-.11.12-.05.87-.37h.12c.81-.35 1.94-.84 3.31-1.46l.11-.05 2.2-1 .18-.08c1.61-.75 3.4-1.6 5.26-2.55h.06c.92-.47 1.86-.94 2.8-1.44l.21-.11c1.92-1 3.86-2.1 5.71-3.22.9-.55 1.78-1.1 2.63-1.66l.22-.14c.84-.56 1.65-1.12 2.41-1.69.78-.58 1.51-1.16 2.18-1.73.64-.56 1.21-1.11 1.73-1.66l.17-.18a12.39 12.39 0 0 0 1.26-1.6l.06-.11a6.27 6.27 0 0 0 .76-1.57 3.7 3.7 0 0 0 .17-2.06zm-157.24-42.93c1.59.41 8.45 1.77 19.51-1.27a302.05 302.05 0 0 1 36.67-8c-15.48 5.5-56.14 23.24-61.27 59.38 0 .03-4.3-31.04 5.09-50.11zm97.31 44.49c-10.79-10-25.08-13.87-25.08-13.87a20.25 20.25 0 0 1 5.3 4 78.69 78.69 0 0 0 -17.92-7.48l.43.05c-27.43-10.05-48.38 7.14-53.59 14.25a29.49 29.49 0 0 1 -2 3c15.8-27.76 55.85-34.23 96.29-5.45 2.51 2.7-.47 5.15-3.43 5.5z" fill="#e0a882"/><path d="m315.24 154.55s85.06 14 128.33 30.75l-121.57-115.19-47.28-44.54-66.61 46-144.88 106.52c60.25-26.52 139.58-28.64 139.58-28.64 39.24-2.34 112.43 5.1 112.43 5.1z" fill="none"/><path d="m368.92 170.86c0 .31.36 7.77.45 13.81.29 11.88.43 28.31-.46 41.12 79-6.95 97.22-20.2 97.22-20.2-26.86-25.45-97.21-34.77-97.22-34.77a.06.06 0 0 0 .01.04z" fill="none"/><path d="m149 159.27c.21-.68.44-1.39.66-2.08-60.66 10.22-106.79 37.11-106.79 37.11 23.08 22.61 87.94 26.12 99.82 26.57a88.55 88.55 0 0 0 1-18.67c-1-13.68-2.33-18 4.21-39.54q.51-1.66 1.1-3.39z" fill="none"/><path d="m147.12 181.76c-.8 4.41-1.19 8.13-.73 10 2.82 14.29-.71 33-1.91 36.92-2 6.58-5.31 16.26-8.28 38.53-3.89 32.75 7.64 46 7.64 46s12.44 10.75 14.71 17c12.55 26.59 33.25 31.64 53.31 29.13s74.67-34.51 92.91-47.66 36-53.07 36-53.07 42.64-17.39 30.86-25.34-33.51 18.67-33.51 18.67c-.11-1.7-.21-2.34-.21-2.34l-11.53-.71v-9.61s14.75-43.48 16.12-54c0-.22-.06-.45-.07-.67-121.15-22.4-186.2-5.52-195.31-2.85z" fill="none"/><path d="m272.57 183.62a302.05 302.05 0 0 0 -36.67 8c-11.06 3-17.92 1.68-19.51 1.27-9.39 19.04-5.09 50.11-5.09 50.11 5.13-36.14 45.79-53.88 61.27-59.38z" fill="none"/><path d="m220.86 237.31a29.49 29.49 0 0 0 2-3c5.21-7.11 26.11-24.27 53.58-14.21l-.44-.1a78.69 78.69 0 0 1 17.93 7.47 20.25 20.25 0 0 0 -5.3-4s14.29 3.87 25.08 13.87c3-.31 5.94-2.8 3.45-5.49-40.45-28.77-80.5-22.3-96.3 5.46z" fill="#f9d750"/><path d="m220.86 237.31a29.49 29.49 0 0 0 2-3c5.21-7.11 26.11-24.27 53.58-14.21l-.44-.1a78.69 78.69 0 0 1 17.93 7.47 20.25 20.25 0 0 0 -5.3-4s14.29 3.87 25.08 13.87c3-.31 5.94-2.8 3.45-5.49-40.45-28.77-80.5-22.3-96.3 5.46z" fill="#bc8e6f"/><path d="m148.22 159.49-.31 3.17q.5-1.64 1.05-3.39z" fill="#730000"/><path d="m185.39 311.8.45 20.08 13.58-12.17 22.48-7.23h9l10.61 4 23.33-32-8.48 1.27-16.36 11.9s-27.22 10.76-27.75 10.54-26.13 2.81-26.13 2.81z" fill="#820d1a"/><path d="m242.13 316.47s-10.61-3.68-11.88-4-18 2.69-18 2.69l-12.41 4.38-14.45 12.81v8.55l7 5.72s8.69 1.42 9.12 1.28 10.46-5 10.46-5l12.59-8z" fill="#c14250"/><path d="m238.61 230.43c9.82 13.15 34.43 14.38 42.85-2.23 0 0-22.63-5.97-42.85 2.23z" fill="#241515"/><path d="m173.89 292v4.94l3 11 15.34 3 22.23-2.41 17.07-5.09 13-8.27 9.62-8.77s-5.73 1.49-6.09 1.63-17.88 2.26-18.59 2.26-25.25 2-25.25 2l-15.27 1.2-10.68-1.34z" fill="#fff"/><path d="m208 278a14.42 14.42 0 0 1 -4.93-2.34c-3-2-11.29 1.6-4.56 5.79 2 .84 4.93-.73 4.93-.73s.22-.65 2.39.73 4.35-1.01 2.17-3.45z"/><path d="m216.39 192.86c-9.39 19.07-5.09 50.14-5.09 50.14 5.13-36.14 45.79-53.88 61.27-59.38a302.05 302.05 0 0 0 -36.67 8c-11.06 3.01-17.9 1.65-19.51 1.24z" fill="#bc8e6f"/><path d="m285.54 158.09a127.26 127.26 0 0 0 -44.23 15.27 103.36 103.36 0 0 0 -23.9 18.35c-.67.73-1 1.15-1 1.15l.42.12c1.6.41 8 1.65 19.09-1.39a302.05 302.05 0 0 1 36.67-8 391.93 391.93 0 0 1 39-4.09c6.52-.35 10.42-.38 10.42-.38-10.88-12.12-36.47-21.03-36.47-21.03z"/><path d="m181.93 237.61a51.67 51.67 0 0 0 -21.75-9.22c1 3.58 5.13 13.5 21.5 14.29a16.27 16.27 0 0 0 2.57-2.91c.11-.48-1.52 0-1.46-1.18-.27-.22-.58-.77-.86-.98z" fill="#241515"/><path d="m248.63 231.35a2.18 2.18 0 1 1 -2.17-2.18 2.17 2.17 0 0 1 2.17 2.18z" fill="#fff"/><path d="m252.53 229.48a1 1 0 1 1 -1-1 1 1 0 0 1 1 1z" fill="#fff"/><path d="m167.12 233.2a1.35 1.35 0 1 1 -1.34-1.34 1.34 1.34 0 0 1 1.34 1.34z" fill="#fff"/><path d="m169.53 232.05a.63.63 0 0 1 -.63.63.63.63 0 1 1 0-1.26.63.63 0 0 1 .63.63z" fill="#fff"/><path d="m238.61 230.43c9.82 13.15 34.43 14.38 42.85-2.23 0 0-22.63-5.97-42.85 2.23z" fill="none"/><path d="m235.48 231.26a39.71 39.71 0 0 0 -14.92 11s2.69-1.35 4.45-1.2a167.16 167.16 0 0 0 19.73 0c-6.86-1.81-9.26-9.8-9.26-9.8z" fill="none"/><path d="m293.92 227.51a78.69 78.69 0 0 0 -17.92-7.51l-12.46-.51c-10.36.26-24.42 2.35-32.4 10.95-.01.04 27.35-13.11 62.78-2.93z" fill="none"/><path d="m314 237.59a3 3 0 0 0 -.26-.24h-.16z"/><path d="m313.49 237.38c-3 .21.47.21.47.21z" fill="#cdb140" opacity=".5"/><path d="m293.92 227.51 19.62 9.86h.16c-10.79-10-25.08-13.87-25.08-13.87a20.25 20.25 0 0 1 5.3 4.01z"/><path d="m222.84 238.44 3.73-6.38 16-10.91 11.07-2 9.91.4a90.74 90.74 0 0 1 12.89.56c-27.44-10.11-48.39 7.08-53.6 14.19a29.49 29.49 0 0 1 -2 3 50 50 0 0 0 -2.78 5.69z"/><path d="m294.45 235.5-1.25.33c.43-.1.8-.21 1.25-.33z" fill="none"/><path d="m235.48 231.26a39.71 39.71 0 0 0 -14.92 11s2.69-1.35 4.45-1.2a167.16 167.16 0 0 0 19.73 0c-6.86-1.81-9.26-9.8-9.26-9.8z" fill="#fff"/><path d="m279 237a62.62 62.62 0 0 0 14.24-1.12l1.25-.33s3.41-1.39 6.25-2.83a124.88 124.88 0 0 0 -16.64-4.13s-.79 6.13-5.1 8.41z" fill="#fff"/><path d="m235.48 231.26a39.71 39.71 0 0 0 -14.92 11s2.69-1.35 4.45-1.2a167.16 167.16 0 0 0 19.73 0c-6.86-1.81-9.26-9.8-9.26-9.8z" fill="none"/><path d="m288.62 223.48a20.25 20.25 0 0 1 5.3 4c-35.43-10.18-62.79 3-62.79 3 8-8.6 22-10.69 32.4-10.95a90.74 90.74 0 0 1 12.89.56c-27.42-10.09-48.37 7.1-53.58 14.21a29.49 29.49 0 0 1 -2 3 129.63 129.63 0 0 1 -8.61 10.14s3.39-2.54 14.64-2.54c40.23 3 67.56-9.41 67.56-9.41-.41.12-.82.23-1.25.33a62.62 62.62 0 0 1 -14.18 1.18c4.35-2.23 5.1-8.41 5.1-8.41a124.88 124.88 0 0 1 16.64 4.13c6.49 2.07 11.35 4.09 12.79 4.71h.05.16c-10.83-10.08-25.12-13.95-25.12-13.95zm-50 7c20.22-8.2 42.85-2.23 42.85-2.23-8.47 16.56-33.04 15.33-42.86 2.18zm-13.62 10.52c-1.76-.15-4.45 1.2-4.45 1.2a39.71 39.71 0 0 1 14.92-11s2.4 8 9.26 9.76a167.16 167.16 0 0 1 -19.73.04z"/><path d="m313.49 237.38.47.21-.42-.22z"/><path d="m313.49 237.38.47.21-.42-.22z" fill="#cdb140" opacity=".5"/><path d="m175.31 224.75s5.58 5.59 5.86 5.75 3.61 6.91 3.61 6.91l4.81 4.45.15-1.19a39.16 39.16 0 0 1 -6.87-9.87c-3.61-7.11-12-11.77-18.56-10.5l3.13.63z" fill="none"/><path d="m195.94 344.84c16.31-1.44 32-14.63 44.1-28.35-5.25-2.64-28.96-11.81-44.1 28.35z" fill="none"/><path d="m186.41 312.68c-.39 7.2-.47 12.79-.31 17.12 2.76-3 28.84-29.73 55.25-14.84 1.5-1.74 2.93-3.48 4.3-5.2a35.17 35.17 0 0 0 -3.33-10.91c-11.32 7.15-29.7 14.63-55.91 13.83z" fill="none"/><path d="m210.87 316.18s-19.55 5.23-24.4 18.87c1.09 9.44 4 9.66 7.1 9.77 1.43-5.91 5.82-19.42 17.3-28.64z" fill="none"/><path d="m239.94 295.33a14.91 14.91 0 0 0 -4.34-3.33c-36.46 6.56-61.21 1.07-61.21 1.07-.22 6.56 3.34 14.15 3.34 14.15 21.45 6.39 47.35-4.16 62.21-11.89z" fill="none"/><path d="m246 289.79c.34.54.66 1.11 1 1.68 3.22-1.88 5.09-3.14 5.09-3.14-2.09.53-4.09 1-6.09 1.46z" fill="none"/><path d="m248.45 294.62a55.37 55.37 0 0 1 2.69 8c5.41-7.41 9.3-13.7 11-16.59-1.63.36-3.42.71-5.46 1.06a53.64 53.64 0 0 1 -8.23 7.53z" fill="none"/><path d="m164.31 220.3c6.58-1.27 14.95 3.39 18.56 10.5a40.69 40.69 0 0 0 6.16 9.12c.39-2.35.74-4.84 1-7.47-10.92-19.45-25.72-12.15-25.72-12.15z" fill="#bc8e6f"/><path d="m190.65 233.52c-.2-.39-.42-.7-.63-1.07-.25 2.63-.6 5.12-1 7.47.27.29.52.56.71.75z"/><path d="m175.31 224.75s5.58 5.59 5.86 5.75 3.61 6.91 3.61 6.91l4.81 4.45.15-1.19a39.16 39.16 0 0 1 -6.87-9.87c-3.61-7.11-12-11.77-18.56-10.5l3.13.63z"/><path d="m195.94 344.84c16.31-1.44 32-14.63 44.1-28.35-5.25-2.64-28.96-11.81-44.1 28.35z" fill="none"/><path d="m210.87 316.18s-19.55 5.23-24.4 18.87c1.09 9.44 4 9.66 7.1 9.77 1.43-5.91 5.82-19.42 17.3-28.64z" fill="none"/><path d="m186.41 312.68c-.39 7.2-.47 12.79-.31 17.12 2.76-3 28.84-29.73 55.25-14.84 1.5-1.74 2.93-3.48 4.3-5.2a35.17 35.17 0 0 0 -3.33-10.91c-11.32 7.15-29.7 14.63-55.91 13.83z" fill="none"/><path d="m239.94 295.33a14.91 14.91 0 0 0 -4.34-3.33c-36.46 6.56-61.21 1.07-61.21 1.07-.22 6.56 3.34 14.15 3.34 14.15 21.45 6.39 47.35-4.16 62.21-11.89z" fill="none"/><path d="m246 289.79c.34.54.66 1.11 1 1.68 3.22-1.88 5.09-3.14 5.09-3.14-2.09.53-4.09 1-6.09 1.46z" fill="none"/><path d="m248.45 294.62a55.37 55.37 0 0 1 2.69 8c5.41-7.41 9.3-13.7 11-16.59-1.63.36-3.42.71-5.46 1.06a53.64 53.64 0 0 1 -8.23 7.53z" fill="none"/><path d="m181.17 249.69.3-.2-.39.22z" fill="none"/><path d="m184.46 247.45a17.77 17.77 0 0 1 -3 2l-.3.2h-.09c-7.26 3.8-16.19 2.42-20.48 1.37 6.4 5.16 21.39 2 25.64 1 .54-1.73 1.12-3.92 1.68-6.47z" fill="#bc8e6f"/><path d="m184.46 247.45-3 2a17.77 17.77 0 0 0 3-2z" fill="#cdb140"/><path d="m158.05 250.37s1 .33 2.55.71c4.29 1 13.22 2.43 20.48-1.37l.39-.22 3-2s-10.3 4.42-26.42 2.88z"/><path d="m277.83 247.45c-3.16.78-16.06 1.63-17.11 1.7 0 0-24.68 5.73-36.34-2.2 0 0 19.16 13.61 55.64 2.11 2.48-1.18.43-2.25-2.19-1.61z" fill="#bc8e6f"/><path d="m260.72 249.15-8 1.17-5.73-.4-11.66-.42-11-2.55c11.67 7.93 36.39 2.2 36.39 2.2z"/><path d="m224.38 247c11.66 7.93 36.34 2.2 36.34 2.2-14.78.94-36.34-2.2-36.34-2.2z"/><path d="m214.83 262.3c11.88 3.32 8.34 15.84 3.39 17.89-1.77.73-2.84.61-3.37.11.88 2.43 6.65 1.54 6.65 1.54 15.36-15.93-6.67-19.54-6.67-19.54z" fill="#bc8e6f"/><path d="m215 262.43-.15-.13z" fill="#cdb140" opacity=".5"/><path d="m218.22 280.19c4.95-2.05 8.49-14.57-3.39-17.89l.15.13 5.23 4.54 1.16 3.92-.49 4.2-1.88 3.38-4.19 1.83c.57.5 1.64.62 3.41-.11z"/><path d="m214.83 262.3.15.13c1.29 1.14 10.67 9.77 1.69 13.87-1.95 1-2.77 3.11-1.82 4 .53.5 1.6.62 3.37-.11 4.95-2.05 8.49-14.57-3.39-17.89z"/><path d="m195.94 344.84c16.31-1.44 32-14.63 44.1-28.35-5.25-2.64-28.96-11.81-44.1 28.35z" fill="none"/><path d="m210.87 316.18s-19.55 5.23-24.4 18.87c1.09 9.44 4 9.66 7.1 9.77 1.43-5.91 5.82-19.42 17.3-28.64z" fill="none"/><path d="m239.94 295.33a14.91 14.91 0 0 0 -4.34-3.33c-36.46 6.56-61.21 1.07-61.21 1.07-.22 6.56 3.34 14.15 3.34 14.15 21.45 6.39 47.35-4.16 62.21-11.89z" fill="none"/><path d="m187.32 242.63a51 51 0 0 0 -27.14-14.24c1.06 3.97 6.01 15.73 27.14 14.24z" fill="none"/><path d="m146.59 227.28c1.45 2.12 6.81 9.18 15.07 11.76a22.29 22.29 0 0 1 -4.7-11.19 60.64 60.64 0 0 0 -10.37-.57z" fill="none"/><path d="m186.41 312.68c-.39 7.2-.47 12.79-.31 17.12 2.76-3 28.84-29.73 55.25-14.84 1.5-1.74 2.93-3.48 4.3-5.2a35.17 35.17 0 0 0 -3.33-10.91c-11.32 7.15-29.7 14.63-55.91 13.83z" fill="none"/><path d="m246 289.79c.34.54.66 1.11 1 1.68 3.22-1.88 5.09-3.14 5.09-3.14-2.09.53-4.09 1-6.09 1.46z" fill="none"/><path d="m248.45 294.62a55.37 55.37 0 0 1 2.69 8c5.41-7.41 9.3-13.7 11-16.59-1.63.36-3.42.71-5.46 1.06a53.64 53.64 0 0 1 -8.23 7.53z" fill="none"/><path d="m252.34 305.3-.42.56c2.23 10.19 3 22.67 2.82 35.88l.68-.36c2.33-19.56-1.7-32.38-3.08-36.08z" fill="#ba9175"/><path d="m373.63 235.79-.1 1.86a3.7 3.7 0 0 0 .1-1.86z" fill="none"/><path d="m372.82 234.28a5.69 5.69 0 0 0 -1.16-1c-6.27-4.24-15.36 1.33-22.5 7.46l-.9 5.48c7.37-6.31 22.09-11.15 24.56-11.94z" fill="none"/><path d="m186.41 312.68c-.39 7.2-.47 12.79-.31 17.12 2.76-3 28.84-29.73 55.25-14.84 1.5-1.74 2.93-3.48 4.3-5.2a35.17 35.17 0 0 0 -3.33-10.91c-11.32 7.15-29.7 14.63-55.91 13.83z" fill="none"/><path d="m239.94 295.33a14.91 14.91 0 0 0 -4.34-3.33c-36.46 6.56-61.21 1.07-61.21 1.07-.22 6.56 3.34 14.15 3.34 14.15 21.45 6.39 47.35-4.16 62.21-11.89z" fill="none"/><path d="m252 288.33c-2.06.53-4.06 1-6.07 1.46.34.54.66 1.11 1 1.68 3.22-1.88 5.07-3.14 5.07-3.14z" fill="none"/><path d="m195.94 344.84c16.31-1.44 32-14.63 44.1-28.35-5.25-2.64-28.96-11.81-44.1 28.35z" fill="none"/><path d="m251.14 302.58c5.41-7.41 9.3-13.7 11-16.59-1.63.36-3.42.71-5.46 1.06a53.64 53.64 0 0 1 -8.24 7.57 55.37 55.37 0 0 1 2.7 7.96z" fill="none"/><path d="m146.59 227.28c1.45 2.12 6.81 9.18 15.07 11.76a22.29 22.29 0 0 1 -4.7-11.19 60.64 60.64 0 0 0 -10.37-.57z" fill="none"/><path d="m187.32 242.63a51 51 0 0 0 -27.14-14.24c1.06 3.97 6.01 15.73 27.14 14.24z" fill="none"/><path d="m210.87 316.18s-19.55 5.23-24.4 18.87c1.09 9.44 4 9.66 7.1 9.77 1.43-5.91 5.82-19.42 17.3-28.64z" fill="none"/><path d="m322 70.11-47.28-44.54-66.61 46-144.88 106.52c60.25-26.52 139.58-28.64 139.58-28.64 39.24-2.34 112.43 5.1 112.43 5.1s85.06 14 128.33 30.75z" fill="none"/><path d="m368.92 170.86c0 .31.36 7.77.45 13.81.29 11.88.43 28.31-.46 41.12 79-6.95 97.22-20.2 97.22-20.2-26.86-25.45-97.21-34.77-97.22-34.77a.06.06 0 0 0 .01.04z" fill="none"/><path d="m142.69 220.87a88.55 88.55 0 0 0 1-18.67c-1-13.68-2.33-18 4.21-39.54q.5-1.64 1.05-3.39c.21-.68.44-1.39.66-2.08-60.61 10.22-106.74 37.11-106.74 37.11 23.13 22.61 87.94 26.12 99.82 26.57z" fill="none"/><path d="m334 164.29c-.56-.83-1.12-1.63-1.67-2.38.51.75 1.07 1.55 1.67 2.38z" fill="#cdb140"/><path d="m147.12 181.76a168.54 168.54 0 0 1 18.41-4 52.52 52.52 0 0 0 -16.89-3.22c-.57 2.46-1.1 4.95-1.52 7.22z" fill="#bc8e6f"/><path d="m153 158c0 .11-.07.25-.11.36l.28-.41z" fill="#cdb140"/><path d="m239.94 295.33a14.91 14.91 0 0 0 -4.34-3.33c-36.46 6.56-61.21 1.07-61.21 1.07-.22 6.56 3.34 14.15 3.34 14.15 21.45 6.39 47.35-4.16 62.21-11.89z" fill="none"/><path d="m210.87 316.18s-19.55 5.23-24.4 18.87c1.09 9.44 4 9.66 7.1 9.77 1.43-5.91 5.82-19.42 17.3-28.64z" fill="none"/><path d="m146.59 227.28c1.45 2.12 6.81 9.18 15.07 11.76a22.29 22.29 0 0 1 -4.7-11.19 60.64 60.64 0 0 0 -10.37-.57z" fill="none"/><path d="m186.41 312.68c-.39 7.2-.47 12.79-.31 17.12 2.76-3 28.84-29.73 55.25-14.84 1.5-1.74 2.93-3.48 4.3-5.2a35.17 35.17 0 0 0 -3.33-10.91c-11.32 7.15-29.7 14.63-55.91 13.83z" fill="none"/><path d="m187.32 242.63a51 51 0 0 0 -27.14-14.24c1.06 3.97 6.01 15.73 27.14 14.24z" fill="none"/><path d="m195.94 344.84c16.31-1.44 32-14.63 44.1-28.35-5.25-2.64-28.96-11.81-44.1 28.35z" fill="none"/><path d="m246 289.79c.34.54.66 1.11 1 1.68 3.22-1.88 5.09-3.14 5.09-3.14-2.09.53-4.09 1-6.09 1.46z" fill="none"/><path d="m256.69 287.05a53.64 53.64 0 0 1 -8.24 7.57 55.37 55.37 0 0 1 2.69 8c5.41-7.41 9.3-13.7 11-16.59-1.62.32-3.41.67-5.45 1.02z" fill="none"/><path d="m246.84 336a166.07 166.07 0 0 1 -41 16.05 10.13 10.13 0 0 1 1.85 3s3.5-2.12 4.56-1.17c0 0-.12 2-.33 5.47 7.77-1 20.69-6.39 34.66-13.38.12-3.56.21-6.85.26-9.97z" fill="#ba9175"/><path d="m205 352.24-1.66.4.93.87a11.26 11.26 0 0 1 .73-1.27z" fill="#bc8e6f"/><path d="m372.82 234.28c-2.47.79-17.19 5.63-24.56 11.9l.9-5.48a101.13 101.13 0 0 0 -11 11.21c-.11-1.7-1-1.59-1-1.59l-10.26-1.39c-3.82 8.53-25.52 53.26-72.25 82.47.1 3.37.13 6.83.09 10.34l.68-.36c19.63-10.38 39.64-22.73 49.35-29.73 18.25-13.15 36-53.07 36-53.07s30.11-12.29 32.73-20.93l.1-1.86a3.55 3.55 0 0 0 -.78-1.51z" fill="#bc8e6f"/><path d="m239.94 295.33a14.91 14.91 0 0 0 -4.34-3.33c-36.46 6.56-61.21 1.07-61.21 1.07-.22 6.56 3.34 14.15 3.34 14.15 21.45 6.39 47.35-4.16 62.21-11.89z" fill="none"/><path d="m195.94 344.84c16.31-1.44 32-14.63 44.1-28.35-5.25-2.64-28.96-11.81-44.1 28.35z" fill="none"/><path d="m210.87 316.18s-19.55 5.23-24.4 18.87c1.09 9.44 4 9.66 7.1 9.77 1.43-5.91 5.82-19.42 17.3-28.64z" fill="none"/><path d="m187.32 242.63a51 51 0 0 0 -27.14-14.24c1.06 3.97 6.01 15.73 27.14 14.24z" fill="none"/><path d="m146.59 227.28c1.45 2.12 6.81 9.18 15.07 11.76a22.29 22.29 0 0 1 -4.7-11.19 60.64 60.64 0 0 0 -10.37-.57z" fill="none"/><path d="m186.41 312.68c-.39 7.2-.47 12.79-.31 17.12 2.76-3 28.84-29.73 55.25-14.84 1.5-1.74 2.93-3.48 4.3-5.2a35.17 35.17 0 0 0 -3.33-10.91c-11.32 7.15-29.7 14.63-55.91 13.83z" fill="none"/><path d="m248.45 294.62a55.37 55.37 0 0 1 2.69 8c5.41-7.41 9.3-13.7 11-16.59-1.63.36-3.42.71-5.46 1.06a53.64 53.64 0 0 1 -8.23 7.53z" fill="none"/><path d="m246 289.79c.34.54.66 1.11 1 1.68 3.22-1.88 5.09-3.14 5.09-3.14-2.09.53-4.09 1-6.09 1.46z" fill="none"/><path d="m172.05 292.1-3.55-1.05c-4.64 6.64-7.45 22.15-9.12 40.75.59 1.18 1.19 2.35 1.82 3.43a77.24 77.24 0 0 1 10.85-43.13z" fill="#ba9175"/><path d="m187.32 242.63a51 51 0 0 0 -27.14-14.24c1.06 3.97 6.01 15.73 27.14 14.24z" fill="none"/><path d="m239.94 295.33a14.91 14.91 0 0 0 -4.34-3.33c-36.46 6.56-61.21 1.07-61.21 1.07-.22 6.56 3.34 14.15 3.34 14.15 21.45 6.39 47.35-4.16 62.21-11.89z" fill="none"/><path d="m369.37 184.67c-.09-6-.44-13.5-.45-13.81.08 2.5.3 7.51.45 13.81z" fill="none"/><path d="m157.84 220.72c-3.5.11-7.53 2.87-7.53 2.87 19.09.31 28.53 8.16 28.53 8.16a25 25 0 0 0 -14.53-11.45c6.58-1.27 14.95 3.39 18.56 10.5a40.45 40.45 0 0 0 6.16 9.12c.39-2.35.74-4.84 1-7.47 1.92-19.65-1-45.63-24.49-54.69a52.52 52.52 0 0 0 -16.89-3.22c-.57 2.48-1.1 5-1.52 7.22-.8 4.41-1.19 8.13-.73 10 2.06 10.41.74 23.11-.59 30.79 4.59-2.44 12.03-1.83 12.03-1.83z" fill="none"/><path d="m240 316.49c-5.25-2.64-29-11.81-44.1 28.35 16.35-1.44 32.03-14.63 44.1-28.35z" fill="none"/><path d="m186.41 312.68c-.39 7.2-.47 12.79-.31 17.12 2.76-3 28.84-29.73 55.25-14.84 1.5-1.74 2.93-3.48 4.3-5.2a35.17 35.17 0 0 0 -3.33-10.91c-11.32 7.15-29.7 14.63-55.91 13.83z" fill="none"/><path d="m186.47 335.05c1.09 9.44 4 9.66 7.1 9.77 1.44-5.91 5.82-19.42 17.3-28.64 0 0-19.55 5.23-24.4 18.87z" fill="none"/><path d="m246 289.79c.34.54.66 1.11 1 1.68 3.22-1.88 5.09-3.14 5.09-3.14-2.09.53-4.09 1-6.09 1.46z" fill="none"/><path d="m146.59 227.28c1.45 2.12 6.81 9.18 15.07 11.76a22.29 22.29 0 0 1 -4.7-11.19 60.64 60.64 0 0 0 -10.37-.57z" fill="none"/><path d="m256.69 287.05a53.64 53.64 0 0 1 -8.24 7.57 55.37 55.37 0 0 1 2.69 8c5.41-7.41 9.3-13.7 11-16.59-1.62.32-3.41.67-5.45 1.02z" fill="none"/><path d="m174.92 278a16 16 0 0 1 4.16.25c-18.47-9.29 3.51-24.65 6.65-24.65.16-.44.33-1 .5-1.54.54-1.73 1.12-3.92 1.68-6.47.12-.54.24-1.11.36-1.66-5.17 1.29-31.24 6.59-44-14.49-2 6.57-5.17 16.33-8 37.74-3.89 32.75 7.64 46 7.64 46a113.71 113.71 0 0 1 9.67 9.57c3.23-25.18 9.96-43.96 21.34-44.75z" fill="none"/><path d="m243.71 316.39s0 0 0 0c-42.57 51.86-61.37 30.48-60.18 20.34.88-7.58-.22-21.31-.48-24.31-11.74-1.46-11.58-6.68-11-20.35l-3.55-1.05c-4.64 6.64-7.45 22.15-9.12 40.75.59 1.18 1.19 2.35 1.82 3.43 12.28 21.44 30.7 26.11 48.83 24.26.61-.06 1.22-.1 1.83-.18 7.76-1 20.72-6.38 34.72-13.39.12-3.51.21-6.8.26-9.93a184.56 184.56 0 0 0 -.69-22.61c-.82 1.05-1.64 2.07-2.44 3.04z" fill="none"/><path d="m239.94 295.33a14.91 14.91 0 0 0 -4.34-3.33c-36.46 6.56-61.21 1.07-61.21 1.07-.22 6.56 3.34 14.15 3.34 14.15 21.45 6.39 47.35-4.16 62.21-11.89z" fill="none"/><path d="m186.47 335.05c1.09 9.44 4 9.66 7.1 9.77 1.44-5.91 5.82-19.42 17.3-28.64 0 0-19.55 5.23-24.4 18.87z" fill="none"/><path d="m157.84 220.72c-3.5.11-7.53 2.87-7.53 2.87 19.09.31 28.53 8.16 28.53 8.16a25 25 0 0 0 -14.53-11.45c6.58-1.27 14.95 3.39 18.56 10.5a40.45 40.45 0 0 0 6.16 9.12c.39-2.35.74-4.84 1-7.47 1.92-19.65-1-45.63-24.49-54.69a52.52 52.52 0 0 0 -16.89-3.22c-.57 2.48-1.1 5-1.52 7.22-.8 4.41-1.19 8.13-.73 10 2.06 10.41.74 23.11-.59 30.79 4.59-2.44 12.03-1.83 12.03-1.83z" fill="none"/><path d="m240 316.49c-5.25-2.64-29-11.81-44.1 28.35 16.35-1.44 32.03-14.63 44.1-28.35z" fill="none"/><path d="m187.32 242.63a51 51 0 0 0 -27.14-14.24c1.06 3.97 6.01 15.73 27.14 14.24z" fill="none"/><path d="m186.41 312.68c-.39 7.2-.47 12.79-.31 17.12 2.76-3 28.84-29.73 55.25-14.84 1.5-1.74 2.93-3.48 4.3-5.2a35.17 35.17 0 0 0 -3.33-10.91c-11.32 7.15-29.7 14.63-55.91 13.83z" fill="none"/><path d="m256.69 287.05a53.64 53.64 0 0 1 -8.24 7.57 55.37 55.37 0 0 1 2.69 8c5.41-7.41 9.3-13.7 11-16.59-1.62.32-3.41.67-5.45 1.02z" fill="none"/><path d="m246 289.79c.34.54.66 1.11 1 1.68 3.22-1.88 5.09-3.14 5.09-3.14-2.09.53-4.09 1-6.09 1.46z" fill="none"/><path d="m146.59 227.28c1.45 2.12 6.81 9.18 15.07 11.76a22.29 22.29 0 0 1 -4.7-11.19 60.64 60.64 0 0 0 -10.37-.57z" fill="none"/><path d="m243.71 316.39s0 0 0 0c-42.57 51.86-61.37 30.48-60.18 20.34.88-7.58-.22-21.31-.48-24.31-11.74-1.46-11.58-6.68-11-20.35l-3.55-1.05c-4.64 6.64-7.45 22.15-9.12 40.75.59 1.18 1.19 2.35 1.82 3.43 12.28 21.44 30.7 26.11 48.83 24.26.61-.06 1.22-.1 1.83-.18 7.76-1 20.72-6.38 34.72-13.39.12-3.51.21-6.8.26-9.93a184.56 184.56 0 0 0 -.69-22.61c-.82 1.05-1.64 2.07-2.44 3.04z" fill="none"/><path d="m174.92 278a16 16 0 0 1 4.16.25c-18.47-9.29 3.51-24.65 6.65-24.65.16-.44.33-1 .5-1.54.54-1.73 1.12-3.92 1.68-6.47.12-.54.24-1.11.36-1.66-5.17 1.29-31.24 6.59-44-14.49-2 6.57-5.17 16.33-8 37.74-3.89 32.75 7.64 46 7.64 46a113.71 113.71 0 0 1 9.67 9.57c3.23-25.18 9.96-43.96 21.34-44.75z" fill="none"/><path d="m322 70.11-47.28-44.54-66.61 46s-6.36 56.85-5.3 77.85c39.24-2.34 112.43 5.1 112.43 5.1-.64-5.52 6.76-84.41 6.76-84.41zm-45 65.42-18.95-8.21c-2 3-1.69 15.42-1.69 15.42h-4c-1.14-4.81 2-16 2-16-1.39-.29-20.82 1.27-20.82 1.27.42-2.4 3.54-8.77 3.54-8.77-5.1-3.39-16.41-18.24-16.41-18.24l4.81-.56c-1.13-3.26-1.84-16.13-1.84-16.13 1.7 1.28 12.87 5.38 12.87 5.38-.14-1.56 1.41-5.24 1.41-5.24 2 3.54 9.9 11.6 9.9 11.6-.28-8.48 0-24.18 0-24.18l5.66 5.51c3.52-6.62 10-13.38 10-13.38.71 5.66 5.51 16 5.51 16l8.91-2.83c-2.54 4.67-6.08 20.65-6.08 20.65l13-7.64c.15 2.41.15 5.94.15 5.94l14.42-3.39-7.39 14.37c2.41 1.27 8.63 2 8.63 2-4.66 3.68-25.6 16.26-25.6 16.26z" fill="#fff"/><path d="m208.11 71.6-144.88 106.49c60.25-26.52 139.58-28.64 139.58-28.64-1.06-21 5.3-77.85 5.3-77.85z" fill="#f00"/><path d="m322 70.11s-7.43 78.93-6.79 84.44c0 0 85.06 14 128.33 30.75z" fill="#f00"/><path d="m292 107.1 7.36-14.42-14.36 3.39s0-3.53-.15-5.94l-13 7.64s3.54-16 6.08-20.65l-8.93 2.88s-4.8-10.32-5.51-16c0 0-6.51 6.79-9.9 13.43l-5.66-5.51s-.28 15.7 0 24.18c0 0-7.92-8.06-9.9-11.6 0 0-1.55 3.68-1.41 5.24 0 0-11.17-4.1-12.87-5.38 0 0 .71 12.87 1.84 16.13l-4.81.56s11.31 14.85 16.41 18.24c0 0-3.12 6.37-3.54 8.77 0 0 19.43-1.56 20.82-1.27 0 0-3.15 11.17-2 16h4s-.29-12.45 1.69-15.42l18.95 8.21-2-10.19s20.94-12.58 25.6-16.26c-.04-.05-6.26-.76-8.71-2.03z" fill="#f00"/><path d="m368.92 170.86c0 .31.36 7.77.45 13.81.29 11.88.43 28.31-.46 41.12 79-6.95 97.22-20.2 97.22-20.2-26.86-25.45-97.21-34.77-97.22-34.77a.06.06 0 0 0 .01.04z" fill="#730000"/><path d="m142.69 220.87a88.55 88.55 0 0 0 1-18.67c-1-13.68-2.33-18 4.21-39.54q.5-1.64 1.05-3.39c.21-.68.44-1.39.66-2.08-60.61 10.22-106.74 37.11-106.74 37.11 23.13 22.61 87.94 26.12 99.82 26.57z" fill="#730000"/><path d="m368.92 170.86a.06.06 0 0 1 0 0s-.01-.01 0 0z"/><path d="m289.65 155.32 4.06.47z" fill="none"/><path d="m259.79 152.56 4.7.35z" fill="none"/><path d="m238.74 151.37c4.43.17 8.83.39 13.17.66-4.34-.27-8.74-.49-13.17-.66z" fill="none"/><path d="m266.27 153.06 4.35.37z" fill="none"/><path d="m252.92 152.09c1.79.12 3.58.23 5.35.36-1.77-.13-3.56-.24-5.35-.36z" fill="none"/><path d="m284.11 154.72 4 .44z" fill="none"/><path d="m272.42 153.58 4.2.39z" fill="none"/><path d="m278.37 154.14 4.1.41z" fill="none"/><path d="m294.93 155.93 4.16.5z" fill="none"/><path d="m232.26 151.15q3 .07 6 .2-2.98-.12-6-.2z" fill="none"/><path d="m199.81 151.38 3.84-.17z" fill="none"/><path d="m225.75 151c1.6 0 3.2.06 4.8.1-1.55-.03-3.2-.1-4.8-.1z" fill="none"/><path d="m187.07 152.23 3.8-.32z" fill="none"/><path d="m172.7 153.9c1.94-.29 3.92-.55 5.91-.8-1.99.25-3.97.51-5.91.8z" fill="none"/><path d="m180.58 152.88 4.1-.44z" fill="none"/><path d="m206.25 151.13c1.3 0 2.61-.07 3.92-.09-1.31.02-2.62.05-3.92.09z" fill="none"/><path d="m219.23 151h4.33z" fill="none"/><path d="m212.73 151q2 0 4.08 0-2.04 0-4.08 0z" fill="none"/><path d="m193.43 151.74c1.26-.09 2.51-.17 3.78-.24-1.27.07-2.52.15-3.78.24z" fill="none"/><path d="m142.69 220.87a88.55 88.55 0 0 0 1-18.67c-1-13.68-2.33-18 4.21-39.54q.5-1.64 1.05-3.39c.21-.68.44-1.39.66-2.08-60.61 10.22-106.74 37.11-106.74 37.11 23.13 22.61 87.94 26.12 99.82 26.57z" fill="none"/><path d="m319 159.11 1.75.26z" fill="none"/><path d="m322 70.11-47.28-44.54-66.61 46-144.88 106.52c60.25-26.52 139.58-28.64 139.58-28.64 39.24-2.34 112.43 5.1 112.43 5.1s85.06 14 128.33 30.75z" fill="none"/><path d="m368.92 170.86c0 .31.36 7.77.45 13.81.29 11.88.43 28.31-.46 41.12 79-6.95 97.22-20.2 97.22-20.2-26.86-25.45-97.21-34.77-97.22-34.77a.06.06 0 0 0 .01.04z" fill="none"/><path d="m325.45 160.1.84.13z" fill="none"/><path d="m322.36 159.62 1.39.22z" fill="none"/><path d="m328.08 160.52h.35z" fill="none"/><path d="m315 158.54 2.25.32z" fill="none"/><path d="m300 156.54c4.92.61 9.44 1.22 13.47 1.78-4.01-.56-8.54-1.17-13.47-1.78z" fill="none"/><path d="m341.24 178.54c-.09-.26-.2-.52-.29-.77.13.37.27.75.38 1.12-.04-.14-.06-.24-.09-.35z" fill="#f9d750"/><path d="m338.85 172.64a2 2 0 0 1 -.1-.21c-.07-.13-.15-.26-.21-.4l.53 1.1c-.07-.13-.14-.33-.22-.49z" fill="#f9d750"/><path d="m340.16 175.56a.5.5 0 0 1 -.05-.13l-.28-.61c.16.38.32.76.47 1.14-.05-.13-.09-.27-.14-.4z" fill="#f9d750"/><path d="m337.37 169.81-.14-.26c-.05-.1-.11-.18-.16-.27.19.33.36.67.55 1-.09-.15-.17-.28-.25-.47z" fill="#f9d750"/><path d="m342 181.58c0-.25-.13-.49-.19-.73.07.29.16.58.21.87-.02-.05-.02-.1-.02-.14z" fill="#f9d750"/><path d="m335.76 167.08-.15-.27-.06-.08c.15.23.28.48.43.71-.07-.12-.14-.24-.22-.36z" fill="#f9d750"/><path d="m334.17 164.6c-.07-.1-.13-.2-.19-.3-.57-.83-1.14-1.64-1.69-2.39.55.75 1.11 1.55 1.67 2.38z" fill="#f9d750"/><path d="m337.62 170.29c.32.57.62 1.15.92 1.74-.3-.59-.6-1.17-.92-1.74z" fill="#cdb140"/><path d="m334.17 164.6q.69 1 1.38 2.13-.69-1.09-1.38-2.13z" fill="#cdb140"/><path d="m336 167.44c.37.6.73 1.21 1.09 1.84-.38-.63-.74-1.28-1.09-1.84z" fill="#cdb140"/><path d="m341.32 178.85c.2.67.37 1.34.52 2-.15-.66-.32-1.33-.52-2z" fill="#cdb140"/><path d="m342.46 184.56a24 24 0 0 0 -.41-2.84 24.09 24.09 0 0 1 .36 2.49c.01.12.04.24.05.35z" fill="#cdb140"/><path d="m340.3 176c.23.59.44 1.18.64 1.77-.2-.63-.41-1.22-.64-1.77z" fill="#cdb140"/><path d="m339.07 173.13c.26.56.52 1.12.76 1.69-.24-.57-.5-1.13-.76-1.69z" fill="#cdb140"/><path d="m342.46 184.56c0-.11 0-.23 0-.35a24.09 24.09 0 0 0 -.36-2.49c-.05-.29-.14-.58-.21-.87-.15-.66-.32-1.33-.52-2-.11-.37-.25-.75-.38-1.12-.2-.59-.41-1.18-.64-1.77-.15-.38-.31-.76-.47-1.14-.24-.57-.5-1.13-.76-1.69l-.53-1.1c-.3-.59-.6-1.17-.92-1.74-.19-.34-.36-.68-.55-1-.36-.63-.72-1.24-1.09-1.84-.15-.23-.28-.48-.43-.71q-.69-1.09-1.38-2.13l-.21-.31c-.56-.83-1.12-1.63-1.67-2.38l-.59-.8-3.27-.54h-.35l-1.79-.29-.84-.13-1.7-.26-1.39-.22-1.66-.25-1.75-.26-1.69-.25-2.25-.32-1.53-.22c-4-.56-8.55-1.17-13.47-1.78l-.92-.11-4.16-.5-1.22-.14-4.06-.47-1.5-.16-4-.44-1.64-.17-4.1-.41-1.75-.17-4.2-.39-1.8-.15-4.35-.37-1.78-.15-4.7-.35-1.52-.11c-1.77-.13-3.56-.24-5.35-.36l-1-.06c-4.34-.27-8.74-.49-13.17-.66h-.46q-3-.12-6-.2h-1.71c-1.6 0-3.2-.08-4.8-.1h-2.19-4.33-2.42q-2 0-4.08 0h-2.56c-1.31 0-2.62.05-3.92.09l-2.6.08-3.84.17-2.6.12c-1.27.07-2.52.15-3.78.24l-2.56.17-3.8.32c-.8.07-1.6.13-2.39.21l-4.1.44-2 .22c-2 .25-4 .51-5.91.8.26.35.87 1.2 1.69 2.46a111.41 111.41 0 0 1 9.7 18.91 436.09 436.09 0 0 1 57.22-1.91 127.26 127.26 0 0 1 44.23-15.27s25.5 8.82 36.37 20.97c0 0-3.9 0-10.42.38q14.81 2.1 30.88 5.03z" fill="#bc8e6f"/><path d="m223.56 151h2.19z"/><path d="m210.17 151h2.56z"/><path d="m299.09 156.43.92.11z"/><path d="m184.68 152.44c.79-.08 1.59-.14 2.39-.21-.8.07-1.6.13-2.39.21z"/><path d="m203.65 151.21 2.6-.08z"/><path d="m178.61 153.1 2-.22z"/><path d="m197.21 151.5 2.6-.12z"/><path d="m190.87 151.91 2.56-.17z"/><path d="m276.62 154 1.75.17z"/><path d="m282.47 154.55 1.64.17z"/><path d="m270.62 153.43 1.8.15z"/><path d="m317.26 158.86 1.69.25z"/><path d="m293.71 155.79 1.22.14z"/><path d="m288.15 155.16 1.5.16z"/><path d="m313.48 158.32 1.53.22z"/><path d="m323.75 159.84 1.7.26z"/><path d="m238.28 151.35h.46z"/><path d="m230.55 151.11h1.71z"/><path d="m326.29 160.23 1.79.29z"/><path d="m251.91 152 1 .06z"/><path d="m320.7 159.37 1.66.25z"/><path d="m258.27 152.45 1.52.11z"/><path d="m264.49 152.91 1.78.15z"/><path d="m186.47 335.05c1.09 9.44 4 9.66 7.1 9.77 1.44-5.91 5.82-19.42 17.3-28.64 0 0-19.55 5.23-24.4 18.87z" fill="none"/><path d="m239.94 295.33a14.91 14.91 0 0 0 -4.34-3.33c-36.46 6.56-61.21 1.07-61.21 1.07-.22 6.56 3.34 14.15 3.34 14.15 21.45 6.39 47.35-4.16 62.21-11.89z" fill="none"/><path d="m240 316.49c-5.25-2.64-29-11.81-44.1 28.35 16.35-1.44 32.03-14.63 44.1-28.35z" fill="none"/><path d="m187.32 242.63a51 51 0 0 0 -27.14-14.24c1.06 3.97 6.01 15.73 27.14 14.24z" fill="none"/><path d="m146.31 187.49v.56c-.05.6-.07 1.17-.07 1.67v.44a7.46 7.46 0 0 0 .18 1.57c.23 1.18.41 2.39.56 3.62 0 .22.05.44.08.66.13 1.18.23 2.38.3 3.58v.7c.06 1.24.1 2.48.1 3.73 0 1.28 0 2.54-.09 3.8v.54c-.06 1.22-.13 2.42-.23 3.6v.44c-.21 2.5-.49 4.86-.8 7-.16 1.1-.33 2.13-.49 3.09 4.6-2.41 12-1.8 12-1.8-3.5.11-7.53 2.87-7.53 2.87 19.09.31 28.53 8.16 28.53 8.16a25 25 0 0 0 -14.53-11.45c6.58-1.27 14.95 3.39 18.56 10.5a40.45 40.45 0 0 0 6.16 9.12c.39-2.35.74-4.84 1-7.47 1.92-19.65-1-45.63-24.49-54.69a52.34 52.34 0 0 0 -16.75-3.21 107.7 107.7 0 0 0 -2.32 11.63c-.07.47-.14.93-.17 1.34z" fill="none"/><path d="m143.7 202.2c-1-13.68-2.33-18 4.21-39.54q.5-1.64 1.05-3.39c.21-.68.44-1.39.66-2.08-60.62 10.22-106.75 37.11-106.75 37.11 23.08 22.61 87.94 26.12 99.82 26.57a88.55 88.55 0 0 0 1.01-18.67z" fill="none"/><path d="m186.41 312.68c-.39 7.2-.47 12.79-.31 17.12 2.76-3 28.84-29.73 55.25-14.84 1.5-1.74 2.93-3.48 4.3-5.2a35.17 35.17 0 0 0 -3.33-10.91c-11.32 7.15-29.7 14.63-55.91 13.83z" fill="none"/><path d="m161.66 239a22.29 22.29 0 0 1 -4.7-11.19 60.64 60.64 0 0 0 -10.37-.57c1.41 2.16 6.81 9.22 15.07 11.76z" fill="none"/><path d="m188.39 257.22s-23.39 5.29-8.39 18.55c0 0-1.28-4 .69-7.26 0 0 4.56 11 9.17 13.34a63 63 0 0 1 -6.34-1.76c2.57 1.82 3.52 4.55 1.86 7.1-3 4.56-11.64.35-11.64.35a5.07 5.07 0 0 0 -2.66.87c4.29 1.14 25.2 5.95 57.84 1.51a50.25 50.25 0 0 0 -13 .24c-8.34.84-9.9-4.25-5.09-7.36s23.19-2.08 23.19-2.08a17.47 17.47 0 0 1 10.13 6.57 249.46 249.46 0 0 0 28.41-7.7c-5.65-1-9.26-4.77-2.4-6s15.91 1.91 17.39 8.49a17 17 0 0 0 -14.14-4.74s7 3.76-7.08 7.67c-4.92 7.61-9.59 14.34-14 20.34l-.42.56a141 141 0 0 1 2.73 25.54c.1 3.37.13 6.83.09 10.34l.68-.36c19.63-10.38 39.64-22.73 49.35-29.73 18.25-13.15 36-53.07 36-53.07s30.11-12.29 32.73-20.93a3.7 3.7 0 0 0 .1-1.86 3.55 3.55 0 0 0 -.81-1.51 5.69 5.69 0 0 0 -1.16-1c-6.27-4.24-15.36 1.33-22.5 7.46a101.13 101.13 0 0 0 -11 11.21c-.11-1.7-1-1.59-1-1.59l-10.26-1.39-.49-.07v-9.61s1.51-4.46 3.61-10.86c.32-1 .63-1.94 1-3l.33-1c.15-.45.29-.9.44-1.36.27-.82.53-1.64.8-2.49l.3-.91c.24-.75.47-1.5.72-2.27.07-.23.15-.47.23-.71.31-1 .63-2 .95-3l.15-.49.81-2.61.24-.76c.31-1 .62-2 .92-3l.15-.5c.26-.85.51-1.7.76-2.53.08-.26.15-.51.23-.76l.83-2.84c0-.16.09-.33.14-.49.23-.79.45-1.56.66-2.32.07-.24.14-.49.2-.73.25-.87.48-1.72.7-2.53l.08-.32c.19-.71.37-1.4.53-2.06.06-.22.11-.43.16-.64.18-.73.35-1.43.5-2.08v-.15c.14-.6.25-1.16.35-1.68l.09-.43c.1-.55.19-1.06.24-1.49s-.09-.68-.12-1a24.15 24.15 0 0 0 -.38-2.63 30.91 30.91 0 0 0 -.79-3c-.32-1-.68-2-1.07-2.94a.5.5 0 0 1 -.05-.13c-.39-.94-.82-1.87-1.26-2.79a2 2 0 0 1 -.1-.21c-.44-.89-.9-1.76-1.38-2.62l-.14-.26c-.48-.85-1-1.67-1.47-2.47l-.15-.27c-1.11-1.76-2.24-3.42-3.32-4.9l-.59-.8-.45-.07-.75-.13-2.07-.34h-.35l-1.79-.29-.84-.13-1.7-.26-1.39-.22-1.66-.25-1.75-.26-1.69-.25-2.25-.32-1.53-.22c-4-.56-8.55-1.17-13.47-1.78l-.92-.11-4.16-.5-1.22-.14-4.06-.47-1.5-.16-4-.44-1.64-.17-4.1-.41-1.75-.17-4.2-.39-1.8-.15-4.35-.37-1.78-.15-4.7-.35-1.52-.11c-1.77-.13-3.56-.24-5.35-.36l-1-.06c-4.34-.27-8.74-.49-13.17-.66h-.46q-3-.12-6-.2h-1.71c-1.6 0-3.2-.08-4.8-.1h-2.19-4.33-2.42q-2 0-4.08 0h-2.56c-1.31 0-2.62.05-3.92.09l-2.6.08-3.84.17-2.6.12c-1.27.07-2.52.15-3.78.24l-2.56.17-3.8.32c-.8.07-1.6.13-2.39.21l-4.1.44-2 .22c-2 .25-4 .51-5.91.8a102.4 102.4 0 0 1 11.39 21.37 126 126 0 0 1 4.29 81.67z" fill="none"/><path d="m274.72 25.57-66.61 46-144.88 106.52c60.25-26.52 139.58-28.64 139.58-28.64 39.24-2.34 112.43 5.1 112.43 5.1s85.06 14 128.33 30.75l-121.57-115.19z" fill="none"/><path d="m369.37 184.67c.29 11.88.43 28.31-.46 41.12 79-6.95 97.22-20.2 97.22-20.2-26.86-25.45-97.21-34.77-97.22-34.77s0 0 0 0c.02.35.37 7.81.46 13.85z" fill="none"/><path d="m256.69 287.05a53.64 53.64 0 0 1 -8.24 7.57 55.37 55.37 0 0 1 2.69 8c5.41-7.41 9.3-13.7 11-16.59-1.62.32-3.41.67-5.45 1.02z" fill="none"/><path d="m243.71 316.39s0 0 0 0c-42.57 51.86-61.37 30.48-60.18 20.34.88-7.58-.22-21.31-.48-24.31-11.74-1.46-11.58-6.68-11-20.35l-3.55-1.05c-4.64 6.64-7.45 22.15-9.12 40.75.59 1.18 1.19 2.35 1.82 3.43 12.28 21.44 30.7 26.11 48.83 24.26.61-.06 1.22-.1 1.83-.18 7.76-1 20.72-6.38 34.72-13.39.12-3.51.21-6.8.26-9.93a184.56 184.56 0 0 0 -.69-22.61c-.82 1.05-1.64 2.07-2.44 3.04z" fill="none"/><path d="m246 289.79c.34.54.66 1.11 1 1.68 3.22-1.88 5.09-3.14 5.09-3.14-2.09.53-4.09 1-6.09 1.46z" fill="none"/><path d="m174.92 278a16 16 0 0 1 4.16.25c-18.47-9.29 3.51-24.65 6.65-24.65.16-.44.33-1 .5-1.54.54-1.73 1.12-3.92 1.68-6.47.12-.54.24-1.11.36-1.66-5.17 1.29-31.24 6.59-44-14.49-2 6.57-5.17 16.33-8 37.74-3.89 32.75 7.64 46 7.64 46a113.71 113.71 0 0 1 9.67 9.57c3.23-25.18 9.96-43.96 21.34-44.75z" fill="none"/><path d="m342 181.58a24.15 24.15 0 0 1 .38 2.63 24.15 24.15 0 0 0 -.38-2.63z"/><path d="m334 164.29c-.56-.83-1.12-1.63-1.67-2.38 1.08 1.48 2.21 3.14 3.32 4.9q-.86-1.3-1.65-2.52z"/><path d="m369.37 184.67c-.09-6-.44-13.5-.45-13.81.08 2.5.3 7.51.45 13.81z"/><path d="m147.12 181.76c-.29 1.6-.5 3.06-.66 4.42a107.7 107.7 0 0 1 2.32-11.63h-.14c-.57 2.45-1.1 4.94-1.52 7.21z"/><path d="m152.93 158.39.45-1.52c-.11.35-.23.76-.35 1.16-.03.11-.03.24-.1.36z"/><path d="m146.29 219.4c.31-2.13.59-4.49.8-7-.21 2.51-.49 4.87-.8 7z"/><path d="m341.24 178.54a30.91 30.91 0 0 1 .79 3 28.34 28.34 0 0 0 -.79-3z"/><path d="m342.46 184.56c0-.11 0-.23 0-.35 0 .34.11.68.12 1-.06-.21-.11-.43-.12-.65z"/><path d="m331 225.43c-.34 1-.65 2-1 3 .33-.99.65-1.98 1-3z"/><g fill="none"><path d="m349.16 240.7-.09.09.13-.12z"/><path d="m293.3 319.36-1 .62z"/><path d="m346.86 242.76.11-.1z"/><path d="m341.23 248.41.15-.16z"/><path d="m296 317.63-1 .61z"/><path d="m344.74 244.78.16-.15z"/><path d="m342.85 246.7.17-.18z"/><path d="m339.92 249.85.1-.12a1.27 1.27 0 0 1 -.1.12z"/><path d="m287.5 323c-.37.21-.73.44-1.1.67z"/><path d="m331.32 224.41c.07-.2.13-.41.2-.61-.14.41-.27.81-.4 1.22.07-.2.13-.4.2-.61z"/><path d="m290.48 321.14-1.07.66z"/><path d="m353.24 237.45.58-.4z"/><path d="m359 233.9.64-.31z"/><path d="m357.53 234.67.63-.35z"/><path d="m342.16 258h-.12z"/><path d="m341.17 258.42-.12.05z"/><path d="m361.86 232.67.64-.22z"/><path d="m360.42 233.23c.21-.1.43-.18.64-.27-.21.09-.43.17-.64.27z"/><path d="m300.77 314.45-.69.46z"/><path d="m351.86 238.5.53-.41z"/><path d="m302.88 313-.55.39z"/><path d="m350.5 239.58.42-.34z"/><path d="m298.47 316-.89.58z"/><path d="m332.86 219.65.48-1.54c-.2.65-.41 1.29-.61 1.93.04-.13.08-.26.13-.39z"/><path d="m354.66 236.46.6-.4z"/><path d="m356.09 235.52.62-.37z"/><path d="m281.18 326.83-1.15.69z"/><path d="m146.29 219.4c-.16 1.1-.33 2.13-.49 3.09.49-2.81 1-6.29 1.28-10.1-.2 2.53-.48 4.89-.79 7.01z"/><path d="m159.38 331.8.16.3c0-.1-.11-.2-.16-.31z"/><path d="m144.23 229.44c-2 6.57-5.17 16.33-8 37.74 3.06-21.37 6-31.16 8-37.74z"/><path d="m144.05 313.39-.21-.18z"/><path d="m333.81 216.67c.31-1 .63-2 .95-3v-.1c-.35 1.12-.71 2.24-1.06 3.34.06-.09.08-.17.11-.24z"/><path d="m274.41 330.83-1.15.66z"/><path d="m267.14 335-.85.48z"/><path d="m270.89 332.85-1.11.64z"/><path d="m222.65 356.46h-.07z"/><path d="m277.82 328.83-1.13.67z"/><path d="m263.13 337.21-.4.22z"/><path d="m215.34 358.66-.55.12z"/><path d="m339 199.66c.23-.79.45-1.56.66-2.32l.05-.17c-.25.88-.51 1.79-.77 2.72z"/><path d="m148.78 174.55h-.14c-.57 2.48-1.1 5-1.52 7.22-.21 1.15-.37 2.21-.5 3.23.46-3.08 1.25-6.74 2.16-10.44z"/><path d="m338.85 200.15v-.08l-.48 1.62z"/><path d="m334 164.29c-.56-.83-1.12-1.63-1.67-2.38.55.75 1.12 1.56 1.69 2.39z"/><path d="m147.12 212v.35c.11-1.28.2-2.6.26-3.94-.09 1.19-.16 2.39-.26 3.59z"/><path d="m337.79 203.75a.74.74 0 0 0 0-.14c-.15.52-.31 1-.47 1.57.19-.48.33-.96.47-1.43z"/><path d="m335.72 210.55.24-.76.42-1.38c-.35 1.15-.71 2.3-1.07 3.45.14-.43.28-.86.41-1.31z"/><path d="m147.37 207.79q.07-1.84.09-3.72-.01 1.88-.09 3.72z"/><path d="m147 195.35c0 .22.05.44.08.66.13 1.18.23 2.37.3 3.56a58.14 58.14 0 0 0 -.94-7.84c.18 1.18.36 2.39.56 3.62z"/><path d="m146.2 189.72v.44c0-.14 0-.3 0-.45z"/><path d="m146.31 187.49v.56c0-.19 0-.37 0-.57z"/><path d="m284.42 324.88-1.18.71z"/><path d="m338.94 251 .07-.08z"/><path d="m364.88 246.27-.22.14z"/><path d="m371.66 233.24a6.46 6.46 0 0 1 .73.59 5.67 5.67 0 0 0 -.73-.59z"/><path d="m356.29 251.3-.21.11z"/><path d="m373.33 235v.06z"/><path d="m371.44 241-.17.18z"/><path d="m147.36 200.31c.06 1.23.1 2.47.1 3.71 0-1.24-.04-2.48-.1-3.71z"/><path d="m332.29 161.91-.59-.8-.45-.07-.75-.13-2.07-.34h-.35l-1.79-.29-.84-.13-1.7-.26-1.39-.22-1.66-.25-1.75-.26-1.69-.25-2.25-.32-1.53-.22c-4-.56-8.55-1.17-13.47-1.78l-.92-.11-4.16-.5-1.22-.14-4.06-.47-1.5-.16-4-.44-1.64-.17-4.1-.41-1.75-.17-4.2-.39-1.8-.15-4.35-.37-1.78-.15-4.7-.35-1.52-.11c-1.77-.13-3.56-.24-5.35-.36l-1-.06c-4.34-.27-8.74-.49-13.17-.66h-.46q-3-.12-6-.2h-1.71c-1.6 0-3.2-.08-4.8-.1h-2.19-4.33-2.42q-2 0-4.08 0h-2.56c-1.31 0-2.62.05-3.92.09l-2.6.08-3.84.17-2.6.12c-1.27.07-2.52.15-3.78.24l-2.56.17-3.8.32c-.8.07-1.6.13-2.39.21l-4.1.44-2 .22c-2 .25-4 .51-5.91.8.26.35.87 1.2 1.69 2.46 33.4-2.31 95.74-4.25 157.86 5.47z"/><path d="m372.76 239.24-.06.11z"/><path d="m144.1 313.44a111.4 111.4 0 0 1 9.41 9.34 109.53 109.53 0 0 0 -9.41-9.34z"/><path d="m158.2 157.62c1.72-1.16 3.09-2 3.09-2a69.79 69.79 0 0 0 -7.11 1.11l-.79.16c-.11.35-.23.76-.35 1.16 0 .11-.07.24-.11.36l-1.46 4.92a2.67 2.67 0 0 1 .58-.88c.49-1.65.93-3.14 1.3-4.34z"/><path d="m363.28 232.23.63-.15z"/><path d="m353.28 252.85h-.06z"/><path d="m368.92 170.86c.1 2.5.3 7.51.45 13.81.29 11.88.43 28.31-.46 41.12 79-6.95 97.22-20.2 97.22-20.2-26.86-25.45-97.21-34.77-97.22-34.77s0 .03.01.04z"/><path d="m348 255.42-.18.08z"/><path d="m364.69 231.93.61-.09z"/><path d="m345.58 256.5-.11.05z"/><path d="m315.24 154.55s85.06 14 128.33 30.75l-121.57-115.19-47.28-44.54-66.61 46-144.88 106.52c60.25-26.52 139.58-28.64 139.58-28.64 39.24-2.34 112.43 5.1 112.43 5.1z"/><path d="m366.07 231.79h.59z"/><path d="m367.42 231.8h.56z"/><path d="m143.7 202.2c-1-13.68-2.33-18 4.21-39.54q.5-1.64 1.05-3.39c.21-.68.44-1.39.66-2.08-60.62 10.22-106.75 37.11-106.75 37.11 23.08 22.61 87.94 26.12 99.82 26.57a88.55 88.55 0 0 0 1.01-18.67z"/><path d="m370.09 232.42c.13.06.27.1.4.15-.13-.05-.27-.09-.4-.15z"/><path d="m368.76 232 .5.12z"/></g><path d="m280 327.52-2.21 1.31z"/><path d="m373.52 237.67a6.27 6.27 0 0 1 -.76 1.57 6.27 6.27 0 0 0 .76-1.57z"/><path d="m276.69 329.5-2.28 1.33z"/><path d="m283.24 325.59-2.06 1.24z"/><path d="m353.22 252.87c-1.86.95-3.65 1.8-5.26 2.55 1.61-.75 3.4-1.6 5.26-2.55z"/><path d="m302.33 313.38-1.56 1.07z"/><path d="m300.08 314.91-1.61 1.09z"/><path d="m356.08 251.41c-.94.5-1.88 1-2.8 1.44.92-.47 1.85-.94 2.8-1.44z"/><path d="m297.58 316.57-1.6 1.06z"/><path d="m347.78 255.5-2.2 1z"/><path d="m345.47 256.55c-1.37.62-2.5 1.11-3.31 1.46.84-.35 1.94-.84 3.31-1.46z"/><path d="m304.77 311.65c-.59.43-1.22.88-1.89 1.34.67-.46 1.3-.91 1.89-1.34z"/><path d="m372.7 239.35a12.39 12.39 0 0 1 -1.26 1.6 12.39 12.39 0 0 0 1.26-1.6z"/><path d="m341.05 258.47-.25.11z"/><path d="m342 258.05-.87.37z"/><path d="m273.26 331.49-2.37 1.36z"/><path d="m369.52 242.81c-.67.57-1.4 1.15-2.18 1.73.78-.54 1.51-1.16 2.18-1.73z"/><path d="m289.41 321.8-1.91 1.2z"/><path d="m371.27 241.13c-.52.55-1.09 1.1-1.73 1.66.64-.56 1.21-1.11 1.73-1.66z"/><path d="m362 248.08c-1.85 1.12-3.79 2.2-5.71 3.22 1.92-1.02 3.86-2.1 5.71-3.22z"/><path d="m286.4 323.67-2 1.21z"/><path d="m367.29 244.58c-.76.57-1.57 1.13-2.41 1.69.84-.56 1.65-1.12 2.41-1.69z"/><path d="m364.66 246.41c-.85.56-1.73 1.11-2.63 1.66.9-.55 1.78-1.07 2.63-1.66z"/><path d="m295 318.24-1.73 1.12z"/><path d="m292.31 320-1.83 1.16z"/><path d="m147.37 207.83v.59c-.01-.23-.01-.42 0-.59z"/><path d="m330 228.39c-2.1 6.4-3.61 10.86-3.61 10.86s1-2.91 2.47-7.39c.66-2 1.43-4.33 2.24-6.84 0 .14-.09.27-.13.41-.32 1.02-.64 2.01-.97 2.96z"/><path d="m334.79 213.55c.18-.56.35-1.12.52-1.69l-.4 1.3z"/><path d="m370.49 232.57a8.58 8.58 0 0 1 1.17.67 8.58 8.58 0 0 0 -1.17-.67z"/><path d="m373.33 235a4.35 4.35 0 0 0 -.94-1.18c.15.15.3.3.43.45a3.72 3.72 0 0 1 .51.73z"/><path d="m331.76 223.05-.24.75c.39-1.22.8-2.47 1.21-3.76-.06.17-.11.35-.17.52-.27.85-.56 1.67-.8 2.49z"/><path d="m333.34 218.11c.14-.41.26-.81.39-1.22l-.15.49z"/><path d="m365.3 231.84c.26 0 .51 0 .77-.05-.26.01-.51.02-.77.05z"/><path d="m269.78 333.49-2.64 1.51z"/><path d="m369.26 232.12a8.22 8.22 0 0 1 .83.3 8.22 8.22 0 0 0 -.83-.3z"/><path d="m366.66 231.76h.76c-.25.02-.5 0-.76 0z"/><path d="m368 231.85c.27 0 .52.1.78.15-.28 0-.53-.11-.78-.15z"/><path d="m342.2 187.15c-.1.52-.21 1.08-.35 1.68v.15c-.15.65-.32 1.35-.5 2.08-.05.21-.1.42-.16.64-.16.66-.34 1.35-.53 2.06l-.08.32c-.22.81-.45 1.66-.7 2.53l-.15.56a102.27 102.27 0 0 0 2.83-11.94c0 .43-.14.94-.24 1.49z"/><path d="m136.2 267.18c-5.09 35.56 7.64 46 7.64 46s-11.53-13.25-7.64-46z"/><path d="m147.09 212.32a.31.31 0 0 1 0 .1z"/><path d="m373.36 235.07a3 3 0 0 1 .27.72 3.7 3.7 0 0 1 -.1 1.86 3.47 3.47 0 0 0 -.17-2.58z"/><path d="m195.94 344.84c16.31-1.44 32-14.63 44.1-28.35-5.25-2.64-28.96-11.81-44.1 28.35z" fill="none"/><path d="m174.43 294.23c.2 6.25 3.3 12.94 3.3 12.94 21.45 6.44 47.35-4.11 62.21-11.84a14.59 14.59 0 0 0 -3.24-2.68c-31.48 7.77-56.95 2.79-62.27 1.58z" fill="none"/><path d="m186.41 312.68c-.39 7.2-.47 12.79-.31 17.12 2.76-3 28.84-29.73 55.25-14.84 1.5-1.74 2.93-3.48 4.3-5.2a35.17 35.17 0 0 0 -3.33-10.91c-11.32 7.15-29.7 14.63-55.91 13.83z" fill="none"/><path d="m187.32 242.63a51 51 0 0 0 -27.14-14.24c1.06 3.97 6.01 15.73 27.14 14.24z" fill="none"/><path d="m210.87 316.18s-19.55 5.23-24.4 18.87c1.09 9.44 4 9.66 7.1 9.77 1.43-5.91 5.82-19.42 17.3-28.64z" fill="none"/><path d="m248.45 294.62a55.37 55.37 0 0 1 2.69 8c5.41-7.41 9.3-13.7 11-16.59-1.63.36-3.42.71-5.46 1.06a53.64 53.64 0 0 1 -8.23 7.53z" fill="none"/><path d="m248.77 289.11-2.69.9c.29.47.57 1 .85 1.46 3.22-1.88 5.09-3.14 5.09-3.14-1.1.28-2.17.53-3.25.78z" fill="none"/><path d="m146.59 227.28c1.45 2.12 6.81 9.18 15.07 11.76a22.29 22.29 0 0 1 -4.7-11.19 60.64 60.64 0 0 0 -10.37-.57z" fill="none"/><path d="m174.39 293v1.21c5.32 1.21 30.79 6.19 62.27-1.58-.37-.23-.7-.49-1.1-.7-36.42 6.58-61.17 1.07-61.17 1.07z" fill="#b7b7b7"/><path d="m246 289.79a2.53 2.53 0 0 0 .13.22l2.69-.9z" fill="#b7b7b7"/><path d="m233.53 352.08q-2.42 1.07-4.71 2 2.3-.93 4.71-2z"/><path d="m256.26 340.93c2.16-1.15 4.32-2.31 6.47-3.5-2.15 1.19-4.31 2.35-6.47 3.5z"/><path d="m234.36 351.71-.83.37z"/><path d="m255.42 341.38.84-.45c-.51.27-1 .53-1.52.81z"/><path d="m227.77 354.52c-1.77.71-3.49 1.37-5.12 1.94 1.63-.57 3.35-1.23 5.12-1.94z"/><path d="m228.82 354.09c-.35.13-.7.29-1 .43.3-.14.65-.3 1-.43z"/><path d="m210.87 316.18s-19.55 5.23-24.4 18.87c1.09 9.44 4 9.66 7.1 9.77 1.43-5.91 5.82-19.42 17.3-28.64z" fill="none"/><path d="m146.59 227.28c1.45 2.12 6.81 9.18 15.07 11.76a22.29 22.29 0 0 1 -4.7-11.19 60.64 60.64 0 0 0 -10.37-.57z" fill="none"/><path d="m182.52 241.86c-.07.3-.41.58-.84.82a48.74 48.74 0 0 0 5.64-.05 45.86 45.86 0 0 0 -4.53-4 31.26 31.26 0 0 1 -.27 3.23z" fill="none"/><path d="m195.94 344.84c16.31-1.44 32-14.63 44.1-28.35-5.25-2.64-28.96-11.81-44.1 28.35z" fill="none"/><path d="m239.94 295.33a14.59 14.59 0 0 0 -3.24-2.68c-.37-.23-.7-.49-1.1-.7-36.46 6.56-61.21 1.07-61.21 1.07v1.21c.2 6.25 3.3 12.94 3.3 12.94 21.49 6.44 47.39-4.11 62.25-11.84z" fill="none"/><path d="m248.45 294.62a55.37 55.37 0 0 1 2.69 8c5.41-7.41 9.3-13.7 11-16.59-1.63.36-3.42.71-5.46 1.06a53.64 53.64 0 0 1 -8.23 7.53z" fill="none"/><path d="m186.41 312.68c-.39 7.2-.47 12.79-.31 17.12 2.76-3 28.84-29.73 55.25-14.84 1.5-1.74 2.93-3.48 4.3-5.2a35.17 35.17 0 0 0 -3.33-10.91c-11.32 7.15-29.7 14.63-55.91 13.83z" fill="none"/><path d="m248.77 289.11-2.82.68a2.53 2.53 0 0 0 .13.22c.29.47.57 1 .85 1.46 3.22-1.88 5.09-3.14 5.09-3.14-1.1.28-2.17.53-3.25.78z" fill="none"/><path d="m181.17 235.5a21.22 21.22 0 0 1 .83 2.5c.28.21.56.4.83.62a31.26 31.26 0 0 1 -.27 3.27 8.38 8.38 0 0 0 2.61-4z"/><path d="m186.41 312.68c-.39 7.2-.47 12.79-.31 17.12 2.76-3 28.84-29.73 55.25-14.84 1.5-1.74 2.93-3.48 4.3-5.2a35.17 35.17 0 0 0 -3.33-10.91c-11.32 7.15-29.7 14.63-55.91 13.83z" fill="none"/><path d="m210.87 316.18s-19.55 5.23-24.4 18.87c1.09 9.44 4 9.66 7.1 9.77 1.43-5.91 5.82-19.42 17.3-28.64z" fill="none"/><path d="m239.94 295.33a14.59 14.59 0 0 0 -3.24-2.68c-.37-.23-.7-.49-1.1-.7-36.46 6.56-61.21 1.07-61.21 1.07v1.21c.2 6.25 3.3 12.94 3.3 12.94 21.49 6.44 47.39-4.11 62.25-11.84z" fill="none"/><path d="m195.94 344.84c16.31-1.44 32-14.63 44.1-28.35-5.25-2.64-28.96-11.81-44.1 28.35z" fill="none"/><path d="m248.45 294.62a55.37 55.37 0 0 1 2.69 8c5.41-7.41 9.3-13.7 11-16.59-1.63.36-3.42.71-5.46 1.06a53.64 53.64 0 0 1 -8.23 7.53z" fill="none"/><path d="m248.77 289.11-2.82.68a2.53 2.53 0 0 0 .13.22c.29.47.57 1 .85 1.46 3.22-1.88 5.09-3.14 5.09-3.14-1.1.28-2.17.53-3.25.78z" fill="none"/><path d="m161.66 239a22.29 22.29 0 0 1 -4.7-11.19 60.64 60.64 0 0 0 -10.37-.57c1.41 2.16 6.81 9.22 15.07 11.76z" fill="#fff"/><path d="m472.64 203.05-197.28-186.19-238.52 173.74s-8 28 105 35.58c-1.15 6.3-2.35 10.8-2.35 10.8-15.84 59.11-1.45 76.55-1.45 76.55a172.87 172.87 0 0 1 14.74 15.47c-3.88 37.05-1 85.14 5.27 111.6 0 0-2.53-58.9.9-103.62 1.53 2.16 3 4.37 4.26 6.6 8.77 15.27 20.37 17 20.37 17l2.18.36c3 63.48 18.47 114.76 18.47 114.76s-.43-12.16 0-19.52c3.14-25.56 6.34-74.89 7.53-94.23 10.37-1.37 20.7-5.21 34.68-12.32-.89 22.86-2.87 53.36-3.89 93.4 0 0 11.07-52.39 12.13-97.72l.22-.11c12.82-6.93 28.6-16.17 49.45-28.17 25.17-19.52 38.46-53.74 38.46-53.74 18.53-1.44 41.32-24.35 33.3-33.27 51.26-3.34 89.97-11.24 96.53-26.97zm-264.53-131.45 66.61-46 47.28 44.51 121.57 115.19c-43.27-16.76-128.33-30.75-128.33-30.75s-73.19-7.44-112.43-5.1c0 0-79.33 2.12-139.58 28.64zm-47.93 156.79a52.35 52.35 0 0 1 22.61 10.2 45.86 45.86 0 0 1 4.53 4 48.74 48.74 0 0 1 -5.64.05c-16.37-.75-20.54-10.64-21.5-14.25zm1.48 10.61c-8.26-2.58-13.62-9.64-15.07-11.76a60.64 60.64 0 0 1 10.37.57 22.29 22.29 0 0 0 4.7 11.19zm21.21-8.24c-3.61-7.11-12-11.77-18.56-10.5a25 25 0 0 1 14.53 11.45s-9.44-7.85-28.53-8.16c0 0 4-2.76 7.53-2.87 0 0-7.44-.61-12 1.8.16-1 .33-2 .49-3.09.31-2.12.59-4.48.79-7a.31.31 0 0 0 0-.1v-.35c.1-1.17.17-2.37.23-3.59 0-.2 0-.4 0-.59q.07-1.84.09-3.72c0-1.24 0-2.48-.1-3.71v-.74c-.07-1.19-.17-2.38-.3-3.56 0-.22-.05-.44-.08-.66-.15-1.23-.33-2.44-.56-3.62a7.53 7.53 0 0 1 -.18-1.56c0-.14 0-.29 0-.44 0-.51 0-1.07.07-1.67 0-.19 0-.36 0-.56.07-.77.17-1.6.31-2.49s.29-2.08.5-3.23c.42-2.27.95-4.74 1.52-7.22h.14a52.34 52.34 0 0 1 16.75 3.21c23.49 9.06 26.41 35 24.49 54.69-.25 2.63-.6 5.12-1 7.47a40.45 40.45 0 0 1 -6.13-9.15zm-29.94-72.41c0-.12.08-.25.11-.36.12-.4.24-.81.35-1.16l.79-.16a69.79 69.79 0 0 1 7.11-1.11s-1.37.86-3.09 2a41.9 41.9 0 0 0 -6.13 4.81 2.67 2.67 0 0 0 -.58.88l1.46-4.92zm-110.06 35.95s46.13-26.89 106.75-37.11c-.22.69-.45 1.4-.66 2.08q-.56 1.75-1.05 3.39c-6.54 21.49-5.24 25.86-4.21 39.54a88.55 88.55 0 0 1 -1 18.67c-11.89-.45-76.7-3.96-99.83-26.57zm110.64 128.48a111.4 111.4 0 0 0 -9.41-9.34v-.05l-.21-.18s-12.73-10.47-7.64-46c2.86-21.41 6-31.17 8-37.74 12.8 21.08 38.87 15.78 44 14.49-.12.55-.24 1.12-.36 1.66-.56 2.55-1.14 4.74-1.68 6.47-.17.53-.34 1.1-.5 1.54-3.14 0-25.12 15.36-6.65 24.65a16 16 0 0 0 -4.16-.25c-11.36.76-18.09 19.54-21.39 44.75zm69.14 33.68h-.07a71.29 71.29 0 0 1 -7.24 2.18l-.55.12c-1 .22-2 .4-2.85.52.21-3.45.33-5.47.33-5.47-1.06-.95-4.56 1.17-4.56 1.17a10.13 10.13 0 0 0 -1.85-3l-.27-.33c-.15 0-.35.24-.54.53a11.26 11.26 0 0 0 -.73 1.27l-.93-.87-1.09-1a32.07 32.07 0 0 0 -2.65 3.28 14.28 14.28 0 0 0 -1.65-2.86c-.53.32-1.38 4.45-1.38 4.45a12.92 12.92 0 0 0 -2.65-5.4 14.84 14.84 0 0 0 -2.44 3.6c-.43-1.91-4.24-4.24-4.24-4.24l-.92 1.8-1-1c.05 1.9.11 3.78.19 5.66-.11 0-.21-.08-.32-.12-1-.37-1.93-.76-2.88-1.2l-.86-.43c-.79-.39-1.58-.79-2.35-1.24-.45-.25-.88-.53-1.32-.81-.61-.37-1.22-.76-1.81-1.17s-1.16-.84-1.73-1.29-.88-.67-1.31-1c-.69-.58-1.37-1.2-2-1.84-.3-.28-.6-.55-.9-.84-.76-.76-1.5-1.57-2.24-2.41-.19-.23-.4-.45-.6-.68-.78-.93-1.55-1.92-2.3-3l-.42-.57c-.77-1.08-1.52-2.22-2.25-3.4-.11-.2-.24-.39-.36-.58-.8-1.35-1.59-2.76-2.35-4.25l-.16-.3c1.67-18.6 4.48-34.1 9.12-40.74l3.55 1.05c-.6 13.67-.76 18.89 11 20.35.26 3 1.36 16.73.48 24.31-1.19 10.14 17.61 31.52 60.18-20.34s0 0 0 0c.8-1 1.62-2 2.44-3a184.56 184.56 0 0 1 .69 22.61c-.05 3.13-.14 6.41-.26 9.92q4-2 8-4.1c-11.6 6.11-22.96 11.49-31.95 14.66zm17.39-40c-12.11 13.72-27.79 26.91-44.1 28.35 15.14-40.13 38.85-30.96 44.06-28.32zm-46.47 28.33c-3.1-.11-6-.33-7.1-9.77 4.85-13.64 24.4-18.87 24.4-18.87-11.48 9.25-15.87 22.76-17.3 28.67zm-7.47-15c-.16-4.33-.08-9.92.31-17.12 26.21.8 44.54-6.73 55.91-13.83a35.17 35.17 0 0 1 3.33 10.91c-1.37 1.72-2.8 3.46-4.3 5.2-26.41-14.88-52.49 11.88-55.25 14.85zm-8.37-22.63s-3.1-6.69-3.3-12.94c0-.41-.06-.81 0-1.21 0 0 24.75 5.49 61.21-1.07.4.21.73.47 1.1.7a14.59 14.59 0 0 1 3.24 2.68c-14.9 7.74-40.8 18.29-62.25 11.85zm69.2-15.7c-.28-.5-.56-1-.85-1.46a2.53 2.53 0 0 1 -.13-.22l2.82-.68c1.08-.25 2.15-.5 3.25-.78-.02.01-1.87 1.27-5.09 3.15zm9.76-4.42c2-.35 3.83-.7 5.46-1.06-1.71 2.89-5.6 9.18-11 16.59a55.37 55.37 0 0 0 -2.69-8 53.64 53.64 0 0 0 8.23-7.52zm116.84-49.4a6.27 6.27 0 0 1 -.76 1.57l-.06.11a12.39 12.39 0 0 1 -1.26 1.6l-.17.18c-.52.55-1.09 1.1-1.73 1.66-.67.57-1.4 1.15-2.18 1.73-.76.57-1.57 1.13-2.41 1.69l-.22.14c-.85.56-1.73 1.11-2.63 1.66-1.85 1.12-3.79 2.2-5.71 3.22l-.21.11c-.95.5-1.88 1-2.8 1.44h-.06c-1.86.95-3.65 1.8-5.26 2.55l-.18.08-2.2 1-.11.05c-1.37.62-2.51 1.11-3.31 1.46h-.12l-.87.37-.12.05-.25.11s-17.78 39.92-36 53.07c-.59.43-1.22.88-1.89 1.34l-.55.39-1.56 1.07-.69.46-1.75 1.25-.89.58-1.6 1.06-1 .61-1.73 1.12-1 .62-1.83 1.16-1.07.66-1.85 1.19-1.1.67-2 1.21-1.18.71-2.06 1.24-1.15.69-2.21 1.31-1.13.67-2.28 1.33-1.15.66-2.37 1.36-1.11.64-2.62 1.51-.85.48-3.16 1.75-.4.22q-4 2.2-8 4.3c0-3.51 0-7-.09-10.33a141 141 0 0 0 -2.73-25.54l.42-.56c4.44-6 9.11-12.73 14-20.34 14.05-3.91 7.08-7.67 7.08-7.67a17 17 0 0 1 14.18 4.69c-1.48-6.58-10.54-9.76-17.39-8.49s-3.25 5.09 2.4 6a249.46 249.46 0 0 1 -28.41 7.7 17.47 17.47 0 0 0 -10.13-6.57s-18.38-1-23.19 2.08-3.25 8.2 5.09 7.36a50.25 50.25 0 0 1 13-.24c-32.64 4.44-53.55-.37-57.84-1.51a5.07 5.07 0 0 1 2.66-.87s8.67 4.21 11.64-.35c1.66-2.55.71-5.28-1.86-7.1a63 63 0 0 0 6.34 1.76c-4.61-2.37-9.17-13.34-9.17-13.34-2 3.28-.69 7.26-.69 7.26-15.06-13.26 8.38-18.55 8.38-18.55a126 126 0 0 0 -4.3-82 111.41 111.41 0 0 0 -9.7-18.91c-.82-1.26-1.43-2.11-1.69-2.46 1.94-.29 3.92-.55 5.91-.8l2-.22 4.1-.44c.79-.08 1.59-.14 2.39-.21l3.8-.32 2.56-.17c1.26-.09 2.51-.17 3.78-.24l2.6-.12 3.84-.17 2.6-.08c1.3 0 2.61-.07 3.92-.09h2.56q2 0 4.08 0h2.42 4.33 2.19c1.6 0 3.2.06 4.8.1h1.71q3 .07 6 .2h.46c4.43.17 8.83.39 13.17.66l1 .06c1.79.12 3.58.23 5.35.36l1.52.11 4.7.35 1.78.15 4.35.37 1.8.15 4.2.39 1.75.17 4.1.41 1.64.17 4 .44 1.5.16 4.06.47 1.22.14 4.16.5.92.11c4.92.61 9.45 1.22 13.47 1.78l1.53.22 2.25.32 1.69.25 1.75.26 1.66.25 1.39.22 1.7.26.84.13 1.79.29h.35l2.07.34.75.13.45.07.59.8c.55.75 1.11 1.55 1.67 2.38 4 6 8.26 13.83 8.55 20.93a102.27 102.27 0 0 1 -2.83 11.94l-.05.17c-.21.76-.43 1.53-.66 2.32l-.06.23a1.21 1.21 0 0 0 -.05.18v.08l-.45 1.54c-.19.64-.37 1.27-.57 1.92a.74.74 0 0 1 0 .14c-.14.47-.28.95-.43 1.43-.32 1.07-.65 2.15-1 3.23l-.42 1.38-.24.76c-.13.44-.27.88-.41 1.31s-.34 1.13-.52 1.69v.1c-.32 1-.64 2-.95 3 0 .07-.05.15-.08.22-.13.41-.25.81-.39 1.22l-.48 1.54c-.05.13-.09.26-.13.39-.41 1.29-.82 2.54-1.21 3.76-.07.2-.13.41-.2.61s-.13.41-.2.61c-.81 2.51-1.58 4.84-2.24 6.84-1.48 4.48-2.47 7.39-2.47 7.39v9.61l.49.07 10.26 1.39s.88-.11 1 1.59c0 0 .07-.1.19-.24.13-.16.32-.39.57-.67l.07-.08c.25-.3.56-.65.91-1a1.27 1.27 0 0 0 .1-.12l1.21-1.32.15-.16c.45-.49.94-1 1.47-1.55l.17-.18c.54-.56 1.11-1.14 1.72-1.74l.16-.15c.63-.61 1.27-1.23 2-1.87l.11-.1c.67-.62 1.37-1.25 2.1-1.87l.09-.09 1.3-1.09.42-.34c.31-.25.62-.5.94-.74l.53-.41.85-.64.58-.4.84-.59.6-.4.83-.54.62-.37.82-.48.63-.35c.27-.14.54-.29.82-.42l.64-.31c.26-.13.53-.25.8-.36s.43-.18.64-.27l.8-.29.64-.22.78-.22.63-.15.78-.15.61-.09c.26 0 .51 0 .77-.05h.59.76.56c.27 0 .52.1.78.15l.5.12a8.22 8.22 0 0 1 .83.3c.13.06.27.1.4.15a8.58 8.58 0 0 1 1.17.67 5.67 5.67 0 0 1 .73.59 4.35 4.35 0 0 1 .94 1.18v.06a3.47 3.47 0 0 1 .17 2.78zm-4.62-11.86c.89-12.81.75-29.24.46-41.12-.15-6.3-.35-11.31-.45-13.81s70.36 9.32 97.22 34.77c-.01-.03-18.25 13.22-97.23 20.17z"/><path d="m192.42 353.14-1.81-.05a3.87 3.87 0 0 1 1 1.59s.32-.68.81-1.54z" fill="#bc8e6f"/><path d="m195.39 353.12a12.21 12.21 0 0 1 1.27 3.36s.43-2.11.88-3.43c-.7.03-1.42.06-2.15.07z" fill="#bc8e6f"/><path d="m199.63 354.89s.8-1.11 1.57-2.06c-.72.05-1.58.11-2.53.16a9.69 9.69 0 0 1 .96 1.9z" fill="#bc8e6f"/><path d="m161.53 335.73.36.62c.12.19.25.38.36.58.73 1.18 1.48 2.32 2.25 3.4l.42.57c.75 1 1.52 2 2.3 3 .2.23.41.45.6.68.74.84 1.48 1.65 2.24 2.41.3.29.6.56.9.84.67.64 1.35 1.26 2 1.84.43.36.87.69 1.31 1s1.14.89 1.73 1.29 1.2.8 1.81 1.17c.44.28.87.56 1.32.81.77.45 1.56.85 2.35 1.24l.86.43c1 .44 1.91.83 2.88 1.2.11 0 .21.09.32.12-.05-1.27-.09-2.55-.13-3.83l-.06-.84s-18.04-8.2-23.82-16.53z" fill="#bc8e6f"/><path d="m246.58 345.92-.55.28z"/><path d="m362.5 232.45.78-.22z"/><path d="m337.83 203.61c.2-.65.38-1.28.57-1.92-.13.43-.25.86-.38 1.3-.02.2-.12.41-.19.62z"/><path d="m336.88 206.78c-.16.54-.33 1.09-.5 1.63.33-1.08.66-2.16 1-3.23l-.33 1.1z"/><path d="m147.33 199.59v.74z"/><path d="m146.62 185c-.14.89-.24 1.72-.31 2.49 0-.4.1-.86.15-1.3s.1-.8.16-1.19z"/><path d="m335.76 167.08c.5.8 1 1.62 1.47 2.47l.14.26c.48.86.94 1.73 1.38 2.62a2 2 0 0 0 .1.21c.44.92.87 1.85 1.26 2.79a.5.5 0 0 0 .05.13c.39 1 .75 2 1.07 2.94a28.34 28.34 0 0 1 .79 3 24.15 24.15 0 0 1 .38 2.63v.35s.06.45.07.67c-.29-7.1-4.5-14.95-8.55-20.93.54.81 1.08 1.65 1.63 2.51z"/><path d="m363.91 232.08.78-.15z"/><path d="m338.15 251.91.19-.24c-.12.14-.19.24-.19.24z"/><path d="m338.93 199.89a1.21 1.21 0 0 0 -.05.18 1.21 1.21 0 0 1 .05-.18z"/><path d="m338.37 251.64.57-.67c-.25.28-.44.51-.57.67z"/><path d="m339 250.89c.25-.3.56-.65.91-1-.34.35-.65.7-.91 1z"/><path d="m146.2 189.72c0-.51 0-1.07.07-1.67-.05.6-.07 1.16-.07 1.67z"/><path d="m341.38 248.25c.45-.49.94-1 1.47-1.55-.53.55-1.02 1.06-1.47 1.55z"/><path d="m340 249.73 1.21-1.32z"/><path d="m222.58 356.48a68.82 68.82 0 0 1 -7.24 2.18 71.29 71.29 0 0 0 7.24-2.18z"/><path d="m266.29 335.46-3.16 1.75z"/><path d="m144.1 313.44v-.05z"/><path d="m214.79 358.78c-1 .22-2 .4-2.85.52.88-.12 1.84-.3 2.85-.52z"/><path d="m146.39 191.73a7.44 7.44 0 0 1 -.18-1.56 7.53 7.53 0 0 0 .18 1.56z"/><path d="m347 242.66c.67-.62 1.38-1.25 2.1-1.87-.76.62-1.46 1.21-2.1 1.87z"/><path d="m353.82 237.05.84-.59z"/><path d="m355.26 236.06.83-.54z"/><path d="m356.71 235.15.82-.48z"/><path d="m359.62 233.59c.26-.13.53-.25.8-.36-.27.11-.54.23-.8.36z"/><path d="m358.16 234.32c.27-.14.54-.29.82-.42-.28.1-.55.28-.82.42z"/><path d="m361.06 233 .8-.29z"/><path d="m344.9 244.63c.62-.61 1.27-1.23 2-1.87-.73.64-1.37 1.24-2 1.87z"/><path d="m343 246.52c.54-.56 1.12-1.14 1.72-1.74-.59.6-1.16 1.22-1.72 1.74z"/><path d="m352.39 238.09.85-.64z"/><path d="m350.92 239.24c.31-.25.62-.5.94-.74-.32.24-.63.5-.94.74z"/><path d="m349.2 240.67 1.3-1.09z"/><path d="m154.18 156.71-.79.16-.45 1.52-1.46 4.92a2.57 2.57 0 0 1 .59-.88 41.9 41.9 0 0 1 6.13-4.81c1.72-1.16 3.09-2 3.09-2a69.79 69.79 0 0 0 -7.11 1.09z" fill="#bc8e6f"/></svg>